<?xml version="1.0" standalone="no"?>
<!DOCTYPE svg PUBLIC "-//W3C//DTD SVG 20010904//EN"
 "http://www.w3.org/TR/2001/REC-SVG-20010904/DTD/svg10.dtd">
<svg version="1.0" xmlns="http://www.w3.org/2000/svg"
 width="1000.000000pt" height="1000.000000pt" viewBox="0 0 1000.000000 1000.000000"
 preserveAspectRatio="xMidYMid meet">
<metadata>
Created by potrace 1.14, written by Peter Selinger 2001-2017
</metadata>
<g transform="translate(0.000000,1000.000000) scale(0.100000,-0.100000)"
fill="#000000" stroke="none">
<path d="M5979 7666 c-3 -3 -14 -7 -25 -9 -32 -7 -54 -19 -49 -27 3 -5 -3 -13
-12 -19 -10 -6 -14 -11 -9 -11 5 0 2 -8 -5 -17 -12 -14 -12 -16 0 -8 11 6 10
2 -2 -16 -9 -13 -17 -31 -17 -41 0 -10 -5 -18 -11 -18 -5 0 -7 -5 -3 -12 4 -6
-1 -17 -10 -24 -10 -7 -17 -15 -17 -18 1 -3 1 -18 1 -33 0 -22 -2 -25 -10 -13
-8 13 -10 12 -10 -3 0 -10 -4 -15 -10 -12 -5 3 -10 0 -10 -7 0 -9 -3 -9 -10 2
-9 13 -10 13 -10 0 0 -13 -1 -13 -10 0 -9 13 -10 13 -10 0 0 -9 -3 -11 -8 -5
-8 12 -32 13 -49 2 -8 -5 -13 -3 -13 3 0 6 -4 8 -10 5 -16 -10 -50 -14 -50 -7
0 4 -9 8 -20 8 -11 0 -20 -4 -20 -8 0 -4 -8 -8 -19 -8 -22 0 -45 -25 -36 -40
3 -5 1 -10 -6 -10 -6 0 -9 -8 -6 -20 3 -11 0 -18 -6 -17 -6 1 -12 -5 -12 -13
-2 -31 -17 -70 -26 -65 -4 3 -6 -4 -4 -15 2 -11 -1 -20 -6 -20 -6 0 -7 -4 -4
-10 3 -5 1 -10 -6 -10 -8 0 -7 -5 2 -17 10 -11 10 -14 2 -9 -7 4 -13 2 -13 -3
0 -6 7 -11 16 -11 8 0 12 -4 9 -10 -3 -5 -2 -10 4 -10 5 0 13 5 17 11 5 8 9 8
14 -1 5 -8 13 -9 21 -4 19 11 39 14 39 5 0 -5 21 -8 48 -9 82 0 88 -1 73 -11
-10 -6 -10 -10 -1 -16 8 -5 6 -11 -7 -22 -10 -8 -11 -11 -3 -7 12 5 12 4 3 -6
-6 -7 -9 -19 -6 -26 3 -8 0 -14 -6 -14 -6 0 -11 -7 -11 -15 0 -8 -4 -15 -10
-15 -6 0 -9 -3 -9 -7 3 -20 -2 -34 -11 -28 -6 3 -13 0 -16 -9 -3 -8 -12 -12
-20 -9 -7 3 -17 -2 -20 -11 -5 -13 -9 -14 -20 -5 -11 9 -15 8 -20 -4 -3 -9
-19 -19 -35 -22 -16 -4 -29 -11 -29 -17 0 -6 -3 -9 -6 -6 -3 4 -15 -3 -26 -14
-11 -11 -26 -17 -34 -14 -8 3 -12 2 -9 -4 6 -10 -28 -32 -39 -25 -3 3 -4 2 -1
-1 7 -10 -24 -36 -35 -29 -6 3 -7 -1 -4 -10 4 -9 2 -15 -2 -13 -5 2 -23 -9
-39 -24 -16 -15 -33 -24 -38 -21 -6 3 -7 1 -3 -5 3 -6 -5 -22 -18 -35 -14 -14
-22 -28 -18 -33 4 -4 2 -4 -5 0 -6 3 -16 -2 -22 -11 -6 -10 -11 -12 -11 -5 0
6 -6 12 -14 12 -8 0 -17 6 -19 13 -4 9 -6 9 -6 0 -1 -7 -12 -1 -26 13 -14 14
-30 22 -35 19 -6 -3 -10 -1 -10 4 0 6 -9 11 -20 11 -11 0 -20 5 -20 10 0 6
-13 10 -29 10 -17 0 -33 5 -36 10 -9 15 -27 12 -19 -2 4 -7 -1 -6 -12 3 -14
12 -40 15 -109 14 -50 0 -97 -5 -104 -10 -10 -5 -12 -4 -7 3 4 7 2 12 -3 12
-6 0 -11 -5 -11 -11 0 -8 -4 -8 -14 0 -10 8 -16 9 -21 1 -3 -6 -11 -7 -17 -4
-7 4 -8 2 -4 -4 4 -6 -1 -11 -11 -11 -22 0 -68 -8 -68 -11 0 -1 -12 -3 -28 -4
-15 -2 -30 -6 -33 -9 -4 -4 -15 -2 -25 4 -15 7 -17 6 -13 -5 4 -11 0 -13 -15
-9 -11 3 -19 9 -16 13 3 5 -4 6 -15 3 -11 -3 -28 -2 -37 2 -10 5 -21 7 -25 7
-5 -1 -8 1 -8 5 0 13 -183 7 -207 -5 -12 -7 -31 -12 -42 -12 -11 0 -23 -5 -26
-10 -5 -8 -11 -7 -21 1 -12 10 -15 10 -12 -2 2 -9 -4 -13 -14 -11 -10 2 -18
-2 -18 -8 0 -6 -4 -8 -10 -5 -5 3 -10 1 -10 -6 0 -8 -4 -8 -16 1 -12 11 -15
11 -12 -1 2 -9 -7 -15 -24 -17 -16 -2 -28 -8 -28 -13 0 -5 -9 -9 -20 -9 -11 0
-20 -5 -20 -11 0 -5 -4 -8 -9 -5 -5 3 -12 -1 -15 -10 -5 -13 -9 -14 -21 -4 -9
7 -15 8 -15 2 0 -5 -13 -9 -30 -8 -16 1 -30 -3 -30 -8 0 -6 -6 -4 -13 4 -14
17 -42 26 -32 10 3 -5 1 -10 -4 -10 -6 0 -11 5 -11 11 0 8 -4 8 -14 0 -10 -9
-16 -9 -21 -1 -5 8 -11 7 -23 -2 -12 -10 -14 -10 -8 0 4 6 3 12 -3 12 -5 0
-13 -5 -16 -10 -5 -8 -11 -8 -20 0 -10 8 -14 7 -18 -2 -4 -10 -8 -10 -16 2 -8
12 -11 12 -11 1 0 -7 -6 -11 -15 -7 -8 3 -15 1 -15 -5 0 -6 -4 -7 -10 -4 -5 3
-19 1 -31 -6 -15 -7 -19 -8 -15 0 5 7 1 9 -8 5 -9 -3 -16 -10 -16 -14 0 -5 -9
-7 -19 -5 -11 2 -22 -3 -25 -11 -3 -7 -12 -11 -21 -8 -8 3 -15 1 -15 -6 0 -6
-4 -8 -10 -5 -5 3 -10 1 -10 -5 0 -7 -7 -10 -15 -6 -8 3 -19 -2 -24 -12 -6 -9
-11 -12 -11 -7 0 6 -5 3 -10 -5 -5 -8 -14 -15 -19 -15 -6 0 -17 -9 -26 -20 -9
-11 -14 -15 -11 -8 5 8 0 8 -19 0 -14 -7 -25 -16 -25 -20 0 -5 -4 -5 -10 -2
-5 3 -10 2 -10 -2 0 -8 -55 -13 -158 -14 -26 0 -40 -4 -36 -11 4 -6 -3 -5 -16
2 -18 9 -21 9 -15 0 6 -9 0 -11 -24 -8 -17 2 -31 1 -31 -4 0 -5 -5 -6 -12 -2
-6 4 -17 -1 -25 -11 -7 -11 -13 -14 -13 -9 0 6 -7 11 -15 11 -8 0 -12 -4 -9
-9 3 -4 -1 -8 -9 -8 -8 0 -20 -6 -26 -14 -7 -8 -21 -12 -31 -9 -12 3 -20 0
-20 -6 0 -7 -4 -10 -9 -7 -5 4 -11 1 -13 -4 -2 -6 -13 -12 -25 -13 -16 -1 -19
-4 -12 -13 8 -9 3 -12 -16 -10 -14 2 -24 1 -21 -1 7 -7 -18 -32 -26 -26 -5 2
-8 0 -8 -6 0 -6 -7 -8 -15 -5 -8 4 -15 2 -15 -3 0 -5 -9 -9 -20 -10 -11 -1
-20 3 -20 10 0 6 -6 2 -14 -8 -13 -18 -13 -18 -24 1 -6 10 -12 15 -12 9 0 -11
-101 -11 -119 -1 -6 4 -11 3 -11 -2 0 -6 -7 -13 -16 -16 -8 -3 -12 -2 -9 4 7
12 -8 14 -19 3 -4 -5 -22 -8 -39 -9 -21 -1 -31 -6 -29 -14 3 -11 0 -11 -12 0
-13 10 -16 10 -16 0 0 -8 -8 -10 -21 -7 -14 4 -19 1 -16 -7 3 -8 -3 -12 -16
-11 -12 1 -28 -5 -35 -14 -9 -11 -11 -11 -6 -2 4 9 -6 6 -24 -8 -18 -12 -32
-19 -32 -14 0 4 -5 0 -11 -9 -5 -10 -17 -18 -24 -18 -8 0 -15 -4 -15 -10 0 -5
-7 -10 -15 -10 -8 0 -15 -7 -15 -16 0 -8 -4 -12 -10 -9 -5 3 -20 -3 -32 -14
-12 -12 -18 -21 -12 -21 11 0 -47 -36 -60 -37 -5 -1 -13 -8 -18 -17 -5 -9 -16
-16 -24 -16 -8 0 -13 -4 -10 -9 3 -4 -6 -7 -19 -5 -14 1 -27 -2 -31 -7 -3 -5
-10 -7 -15 -4 -5 4 -9 0 -9 -7 0 -9 -3 -9 -10 2 -7 11 -10 11 -10 2 0 -8 -5
-10 -12 -6 -17 10 -48 13 -43 3 3 -4 -2 -9 -10 -13 -8 -3 -17 0 -21 6 -5 7 -2
8 6 3 8 -5 11 -4 6 3 -4 7 -16 6 -36 -5 -26 -12 -33 -13 -47 -1 -12 9 -15 9
-9 1 6 -12 -5 -18 -26 -14 -5 0 -8 -3 -8 -8 0 -4 -10 -8 -23 -7 -12 0 -21 -4
-20 -10 1 -6 -4 -11 -12 -11 -8 0 -11 5 -8 11 4 6 -1 5 -10 -2 -9 -8 -21 -11
-27 -7 -6 4 -9 1 -8 -7 2 -7 -5 -13 -15 -13 -10 0 -21 -5 -25 -11 -7 -12 -51
-29 -64 -26 -4 1 -4 -6 -1 -15 4 -11 3 -14 -5 -9 -6 4 -20 -2 -32 -14 -11 -11
-20 -17 -20 -12 -1 4 -9 -3 -19 -15 -10 -12 -21 -20 -23 -17 -3 2 -15 -9 -28
-26 -13 -16 -30 -30 -39 -30 -14 0 -14 -2 -1 -10 9 -6 10 -10 3 -10 -6 0 -17
-16 -24 -34 -7 -19 -15 -33 -19 -31 -3 2 -5 -23 -5 -55 0 -32 2 -56 4 -54 2 2
12 -9 22 -26 12 -19 24 -28 34 -24 8 4 15 1 15 -6 0 -7 7 -10 15 -6 8 3 15 0
15 -6 0 -6 3 -8 7 -5 3 4 13 1 21 -6 13 -10 15 -9 8 3 -7 13 -6 13 6 0 7 -8
19 -15 26 -16 6 -1 21 -2 33 -2 13 -1 18 -6 13 -14 -4 -7 -4 -10 1 -6 4 4 15
2 23 -5 13 -9 14 -9 8 0 -5 9 -2 11 8 7 9 -3 16 -10 16 -14 0 -5 9 -7 20 -5
11 2 20 -1 20 -6 0 -6 5 -7 10 -4 6 3 10 1 10 -4 0 -6 9 -11 20 -11 11 0 20
-5 20 -11 0 -5 4 -8 9 -5 5 3 20 -3 33 -14 14 -11 28 -16 32 -13 3 3 6 1 6 -5
0 -7 3 -11 8 -11 4 1 14 1 22 0 13 -1 13 -2 0 -11 -12 -8 -11 -10 8 -10 12 0
22 -5 22 -11 0 -6 7 -8 17 -5 10 4 14 4 10 0 -11 -11 13 -33 29 -27 8 3 14 0
14 -7 0 -9 3 -10 14 -1 11 9 15 8 20 -6 5 -13 9 -14 15 -5 6 10 15 10 35 2 25
-9 27 -8 22 6 -5 13 -4 14 7 6 10 -8 17 -8 24 -1 8 8 13 8 17 0 5 -7 13 -7 26
-1 11 6 29 15 40 20 12 6 25 8 30 5 6 -4 10 -2 10 4 0 5 9 8 20 6 11 -2 18 0
15 4 -4 7 28 22 43 20 2 0 10 8 19 18 9 11 12 12 8 3 -5 -12 -4 -12 7 1 7 9
19 14 26 12 6 -3 12 0 12 6 0 6 7 11 15 11 7 0 18 6 22 14 4 8 13 16 18 18 6
2 9 7 7 11 -1 5 2 6 8 2 6 -4 17 -1 25 5 8 7 15 9 15 6 0 -4 7 0 16 8 8 9 23
16 31 16 9 0 13 3 9 7 -3 4 13 16 36 26 24 11 49 27 56 36 7 9 11 10 7 4 -10
-20 2 -15 26 10 12 12 18 16 14 8 -6 -11 -2 -10 16 2 13 9 33 17 44 17 16 0
17 2 5 10 -8 5 -10 10 -5 11 31 2 49 9 55 20 5 6 13 8 20 4 9 -5 11 -4 6 3 -7
12 3 16 39 13 15 -1 17 0 7 7 -11 7 -7 11 12 16 15 4 24 11 21 15 -3 5 6 8 20
6 14 -1 25 2 25 7 0 5 4 6 10 3 5 -3 10 -1 10 4 0 6 7 11 15 11 8 0 15 5 15
10 0 6 9 10 20 10 11 0 20 5 20 11 0 5 5 7 10 4 6 -3 10 -1 10 5 0 6 4 8 10 5
6 -3 10 -1 10 5 0 6 5 8 10 5 6 -3 10 -1 10 6 0 7 3 9 6 6 4 -4 20 3 37 15 17
13 27 16 22 7 -7 -12 -6 -12 11 1 10 8 22 20 26 25 5 6 8 5 8 -3 0 -10 4 -9
16 2 8 9 19 14 24 11 5 -3 10 0 12 5 2 6 10 12 18 14 8 1 25 7 36 14 12 6 24
8 28 5 3 -3 6 2 6 12 0 15 3 16 12 7 9 -9 15 -7 25 6 10 12 12 12 8 2 -4 -8 1
-6 9 4 9 11 16 16 16 12 0 -5 8 -2 17 5 14 12 16 12 9 -1 -4 -9 -2 -8 7 2 8
10 17 15 20 11 4 -3 7 -2 7 4 0 10 14 13 58 14 12 1 22 5 22 11 0 5 -6 6 -12
2 -8 -4 -9 -3 -5 2 5 5 22 9 38 10 16 1 37 9 47 18 10 9 21 13 24 10 4 -3 18
2 32 11 14 9 30 14 36 10 5 -3 10 2 10 12 0 15 2 16 10 3 8 -12 10 -12 10 -1
0 8 3 12 6 8 4 -3 20 1 36 9 16 8 33 12 38 9 6 -3 10 -1 10 5 0 7 7 9 16 6 10
-4 13 -2 8 6 -5 7 0 9 14 6 12 -3 22 -2 24 3 2 5 16 12 31 15 21 3 27 1 21 -7
-4 -8 -3 -9 5 -5 6 4 9 12 6 17 -7 10 -4 11 42 13 18 1 41 10 53 21 15 14 20
15 20 4 1 -10 4 -9 14 4 15 19 31 23 20 5 -6 -10 -5 -10 8 -1 8 7 18 10 21 6
4 -3 7 -1 7 5 0 6 6 9 13 6 8 -3 20 2 27 11 10 12 16 13 26 4 10 -8 14 -8 14
-1 0 6 6 9 14 6 8 -3 17 0 22 7 5 8 3 10 -6 4 -9 -5 -11 -4 -6 4 4 6 12 8 19
4 6 -3 27 -7 46 -7 29 -1 35 -5 35 -23 0 -28 -53 -93 -77 -93 -10 0 -15 -4
-12 -10 3 -5 -1 -10 -10 -10 -9 0 -13 -5 -10 -10 4 -6 3 -10 -2 -9 -22 4 -43
-2 -38 -11 6 -9 -8 -14 -27 -11 -5 0 -8 -6 -8 -14 0 -8 -3 -14 -7 -13 -15 3
-43 -14 -37 -23 3 -5 -3 -6 -12 -2 -12 4 -15 3 -10 -5 5 -8 0 -12 -14 -12 -12
0 -18 -4 -15 -10 6 -9 -1 -12 -22 -9 -4 0 -10 -9 -15 -20 -4 -12 -14 -21 -22
-21 -7 0 -16 -7 -20 -15 -3 -8 -10 -15 -15 -15 -11 0 -60 -41 -117 -97 -23
-24 -45 -43 -49 -43 -3 0 -26 -20 -49 -45 -24 -25 -42 -45 -39 -45 2 0 -10
-13 -27 -30 -16 -16 -30 -34 -30 -40 0 -6 -5 -8 -10 -5 -5 3 -10 1 -10 -5 0
-6 -4 -8 -10 -5 -5 3 -7 0 -4 -9 6 -16 -28 -40 -41 -28 -5 4 -5 1 -1 -6 4 -7
2 -19 -4 -27 -7 -8 -9 -15 -6 -15 4 0 1 -7 -8 -15 -8 -8 -19 -15 -24 -15 -6 0
-16 -13 -24 -30 -7 -16 -17 -30 -21 -30 -5 0 -5 -4 -2 -10 3 -5 1 -10 -5 -10
-7 0 -10 -6 -7 -12 2 -7 0 -21 -5 -32 -7 -13 -7 -16 1 -12 7 5 11 -3 11 -19 0
-14 4 -24 9 -21 5 4 11 1 13 -6 3 -8 28 -12 70 -12 41 -1 64 -5 60 -11 -3 -5
2 -4 11 4 9 7 23 11 32 8 8 -4 21 1 30 9 11 12 15 12 15 2 0 -8 3 -9 8 -3 9
12 44 16 36 4 -3 -5 0 -9 5 -9 6 0 11 6 11 13 0 9 2 9 8 0 4 -6 21 -14 37 -17
16 -3 31 -10 33 -15 2 -6 10 -7 19 -4 9 4 14 2 10 -3 -3 -6 3 -11 14 -11 13
-1 17 2 12 10 -5 9 -2 8 9 0 8 -7 18 -10 22 -6 3 4 21 8 38 9 17 2 35 9 39 16
5 7 9 9 9 4 0 -6 6 -2 13 9 8 10 19 15 25 11 8 -5 10 -1 6 9 -4 9 -3 15 2 13
13 -4 54 34 48 44 -3 5 0 7 8 6 7 -2 12 3 10 11 -2 8 3 11 12 8 10 -4 14 0 11
14 -2 12 2 19 11 19 8 0 12 5 9 10 -3 6 -1 10 4 10 6 0 11 7 11 15 0 8 3 15 8
15 4 0 13 9 20 21 8 12 9 18 3 15 -7 -4 -8 -1 -5 8 3 9 11 14 17 13 7 -1 11 6
11 15 -1 10 2 15 7 12 5 -2 11 6 15 20 3 14 14 28 24 31 13 4 17 12 13 22 -4
11 -2 14 5 9 11 -7 17 6 13 27 -1 5 2 6 7 3 9 -5 42 28 42 42 0 4 11 16 25 26
14 10 25 25 25 32 0 8 4 13 9 12 12 -4 91 79 83 87 -3 3 2 5 11 5 9 0 21 8 26
19 6 10 24 24 40 31 17 7 29 15 27 19 -2 3 2 12 10 19 8 7 14 9 14 5 1 -4 8 3
16 17 11 18 14 19 9 5 -4 -14 4 -9 26 15 17 19 28 28 24 20 -3 -8 3 -4 15 10
12 14 24 24 26 23 11 -7 24 -2 22 9 -2 7 3 13 10 14 6 1 15 3 20 4 4 1 11 2
15 1 5 -1 6 3 2 9 -6 9 8 14 28 11 5 -1 6 2 4 6 -7 12 17 30 36 27 9 -1 15 2
12 7 -3 4 6 11 20 15 14 3 25 10 25 16 0 5 5 6 10 3 6 -3 10 -1 10 6 0 7 3 10
6 6 3 -3 14 2 25 11 11 9 23 16 27 15 4 -1 16 6 26 15 15 13 17 13 11 2 -4 -8
4 -4 20 10 16 14 25 18 21 10 -6 -12 -5 -12 6 1 7 9 19 14 27 11 10 -3 11 0 5
9 -6 11 -3 10 11 -1 10 -8 16 -10 12 -4 -4 7 3 15 16 19 34 10 77 12 71 3 -10
-16 9 -8 23 10 10 13 13 13 11 2 -2 -9 5 -15 17 -15 11 -1 19 -6 18 -13 -2 -6
4 -9 12 -6 9 4 15 0 15 -10 0 -9 5 -16 11 -16 8 0 7 -6 -2 -17 -10 -11 -10
-14 -1 -9 6 4 12 2 12 -3 0 -6 -6 -11 -12 -11 -10 0 -9 -3 1 -9 10 -6 10 -10
1 -16 -6 -4 -9 -13 -6 -21 3 -8 1 -14 -4 -14 -6 0 -10 -7 -10 -15 0 -8 -5 -15
-11 -15 -5 0 -8 -3 -6 -7 5 -8 -17 -34 -28 -33 -3 0 -5 -3 -4 -7 1 -11 -30
-25 -41 -18 -6 4 -9 3 -8 -2 4 -12 -34 -53 -49 -53 -7 0 -13 -7 -13 -15 0 -8
-6 -14 -12 -13 -7 2 -12 -3 -10 -10 1 -8 -2 -11 -6 -8 -10 6 -55 -28 -47 -36
3 -2 -6 -11 -20 -18 -14 -7 -25 -20 -25 -27 0 -8 -4 -11 -10 -8 -5 3 -15 -5
-21 -19 -7 -14 -16 -23 -20 -20 -5 3 -9 0 -9 -6 0 -6 -5 -8 -12 -4 -7 4 -8 3
-4 -5 5 -7 -6 -24 -26 -42 -18 -17 -27 -28 -19 -23 10 5 12 3 7 -5 -5 -7 -14
-10 -22 -7 -8 3 -11 0 -7 -10 3 -7 0 -14 -6 -14 -6 0 -11 -5 -11 -12 0 -7 -12
-25 -27 -41 -16 -17 -21 -26 -13 -22 11 6 10 3 -3 -12 -9 -11 -14 -23 -10 -26
3 -4 0 -7 -7 -7 -7 0 -10 -3 -7 -7 4 -3 2 -12 -5 -20 -8 -10 -8 -12 3 -8 10 4
15 -1 15 -14 0 -16 -3 -17 -14 -9 -9 8 -8 0 4 -25 10 -20 24 -37 31 -37 8 0
16 -6 19 -14 4 -11 13 -12 35 -6 19 6 27 5 23 -1 -3 -6 5 -7 23 -3 15 4 36 7
45 6 10 0 20 4 24 9 3 6 12 5 22 -3 10 -8 13 -9 9 -1 -8 13 27 28 43 18 6 -4
7 1 4 10 -5 12 -2 16 12 13 12 -2 18 2 16 10 -1 8 2 11 8 7 5 -3 13 1 16 10 6
13 8 14 15 3 7 -11 9 -11 9 0 0 18 26 43 34 34 4 -3 4 2 0 11 -4 12 -2 17 6
15 6 -2 17 6 23 16 23 38 41 55 50 49 6 -4 8 1 4 10 -4 10 -2 17 5 17 13 0 48
39 48 53 0 5 7 4 16 -3 8 -8 14 -9 12 -4 -4 11 38 54 46 47 3 -3 8 1 12 10 3
9 12 13 21 10 12 -5 14 -3 8 7 -6 10 -2 12 18 8 14 -3 25 -2 24 1 -1 3 1 6 4
6 3 0 12 5 20 11 8 6 22 10 32 8 12 -1 17 2 13 11 -4 11 0 12 19 5 16 -6 25
-6 25 0 0 5 7 7 15 4 8 -4 22 -1 29 5 9 8 16 8 20 2 4 -5 16 -10 29 -10 12 0
32 -1 45 -1 12 0 22 -5 22 -10 0 -6 9 -10 20 -10 11 0 20 -4 20 -10 0 -5 7
-10 16 -10 10 0 14 -5 10 -16 -3 -8 -2 -12 4 -9 6 3 10 1 10 -5 0 -6 4 -9 9
-6 4 3 14 -14 21 -37 8 -23 18 -48 24 -56 9 -12 8 -13 -4 -6 -12 6 -13 5 -2
-6 6 -7 12 -17 12 -22 0 -4 -6 -5 -12 -1 -10 6 -10 4 0 -8 10 -13 10 -17 0
-21 -10 -4 -10 -6 0 -6 8 -1 12 -17 12 -47 0 -27 4 -43 10 -39 6 3 10 -3 10
-13 0 -12 11 -24 30 -32 17 -7 30 -16 30 -19 0 -6 49 -12 110 -14 8 0 18 -5
22 -11 5 -7 8 -5 8 6 0 11 6 16 20 13 11 -2 20 0 20 6 0 5 6 9 13 9 7 0 23 9
34 19 12 11 24 17 27 14 3 -4 6 0 6 9 0 8 9 23 20 33 12 10 18 25 15 32 -2 8
0 11 5 8 10 -6 14 1 24 48 4 18 11 25 19 21 7 -4 3 3 -8 16 -11 13 -14 20 -8
16 10 -5 12 4 11 33 -1 23 -5 41 -10 41 -5 0 -2 7 6 16 19 19 20 25 4 22 -7
-2 -12 3 -10 10 1 6 3 18 5 25 1 6 -4 11 -12 9 -12 -3 -12 0 -1 12 10 13 10
16 -1 16 -12 0 -12 2 -1 9 11 6 10 11 -3 25 -9 9 -12 16 -5 16 7 0 5 7 -4 16
-9 8 -14 19 -11 24 3 4 -2 20 -10 36 -7 15 -12 31 -9 36 3 4 1 8 -4 8 -5 0
-14 12 -20 26 -7 14 -9 23 -5 21 5 -3 8 5 8 18 0 13 -4 21 -9 17 -5 -3 -6 -1
-3 5 12 20 30 68 28 76 -1 5 3 6 7 3 5 -3 18 4 28 17 19 21 19 21 -1 7 -19
-14 -19 -14 -6 3 7 9 20 17 27 17 8 0 14 5 14 10 0 6 7 10 16 10 8 0 13 4 10
8 -2 4 5 9 16 9 12 1 25 8 29 15 7 10 9 10 9 -1 0 -11 3 -11 17 0 14 12 16 12
9 -1 -4 -8 -1 -6 8 4 14 18 16 18 22 2 5 -13 9 -14 14 -5 6 9 16 8 44 -5 21
-10 34 -22 30 -28 -4 -7 -2 -8 4 -4 7 4 27 -8 47 -27 20 -19 47 -43 60 -53 13
-10 22 -21 19 -25 -2 -4 7 -14 21 -23 14 -9 25 -23 25 -31 0 -8 4 -15 8 -15 5
0 15 -12 23 -27 8 -16 23 -36 34 -46 11 -10 14 -16 8 -12 -7 3 -13 1 -13 -4 0
-6 5 -11 10 -11 6 0 10 -9 10 -21 0 -11 5 -17 10 -14 6 4 10 -5 10 -19 0 -14
6 -26 13 -26 9 0 8 -3 -2 -9 -9 -6 -9 -10 -2 -12 6 -2 12 -16 13 -31 1 -16 5
-28 8 -28 13 0 20 -218 8 -242 -5 -10 -5 -18 0 -18 5 0 9 -7 9 -14 0 -8 -3
-15 -6 -14 -19 2 -24 -4 -11 -12 10 -7 11 -13 5 -17 -6 -5 -10 -19 -10 -33 1
-14 -2 -34 -6 -46 -4 -11 -2 -29 4 -40 9 -17 9 -18 -6 -5 -16 12 -16 11 -3
-20 7 -19 11 -40 9 -46 -3 -7 0 -13 6 -13 6 0 11 -6 11 -13 0 -8 12 -19 26
-25 15 -7 22 -17 18 -24 -4 -7 -3 -8 5 -4 6 4 8 13 4 19 -4 7 0 6 10 -2 14
-11 17 -11 17 0 0 12 2 12 9 0 6 -10 13 -10 28 -2 11 5 23 7 27 4 3 -3 6 -1 6
5 0 6 6 9 14 6 8 -3 17 0 21 5 3 6 11 9 16 5 6 -3 17 2 25 12 15 18 15 18 10
0 -5 -14 -3 -16 6 -9 20 15 50 24 43 13 -3 -6 -1 -10 4 -10 6 0 11 4 11 8 0 5
7 9 15 9 8 0 15 -4 15 -8 0 -8 9 -9 63 -10 15 -1 27 -6 27 -11 0 -6 8 -4 17 3
15 12 16 12 8 -1 -8 -13 -7 -13 8 -1 14 11 17 11 17 0 0 -9 3 -10 8 -3 11 17
42 25 42 11 0 -7 7 -4 15 7 7 10 18 15 24 12 5 -4 14 2 20 11 6 10 11 15 11
11 0 -5 8 0 18 10 11 9 17 20 15 25 -2 4 1 7 7 7 7 0 10 7 6 15 -3 8 0 15 7
15 8 0 12 19 12 58 0 31 4 65 8 76 6 12 5 16 -1 12 -7 -4 -9 6 -8 26 2 18 -1
43 -5 56 -5 13 -6 21 -1 19 4 -3 7 5 7 18 0 13 -4 21 -9 18 -5 -3 -7 6 -4 21
3 14 2 26 -3 26 -4 0 -6 12 -4 26 1 16 -2 24 -10 20 -8 -3 -11 5 -9 25 2 16
-1 29 -6 29 -5 0 -7 9 -5 20 3 13 -2 20 -13 21 -10 0 -12 3 -5 5 9 4 9 11 1
30 -6 13 -15 24 -20 24 -4 0 -7 3 -6 8 4 12 -24 72 -33 72 -5 0 -9 8 -9 18 0
10 -9 24 -19 32 -11 7 -18 17 -15 22 3 4 -2 11 -10 14 -9 3 -13 10 -10 15 3 5
-2 12 -10 15 -9 3 -13 10 -10 15 3 5 -3 9 -13 10 -10 0 -13 3 -5 6 6 2 12 15
12 27 0 12 9 28 19 36 11 7 18 17 15 22 -3 4 2 5 10 2 9 -4 16 -1 16 6 0 10 3
10 15 0 12 -10 15 -10 15 1 0 9 3 10 8 3 4 -6 17 -10 29 -9 12 1 20 -2 17 -7
-4 -7 12 -10 41 -8 3 1 13 -6 21 -15 9 -8 20 -13 25 -10 5 4 9 1 9 -6 0 -8 5
-7 17 2 9 8 14 9 10 3 -4 -7 3 -14 18 -18 16 -4 23 -11 19 -18 -4 -6 -3 -8 3
-5 6 4 23 0 39 -8 15 -7 31 -12 36 -9 4 3 8 0 8 -5 0 -6 7 -11 15 -11 8 0 15
-6 15 -12 0 -9 4 -8 10 2 8 12 10 10 10 -8 0 -13 4 -20 10 -17 6 4 7 12 3 18
-3 7 3 3 15 -7 12 -11 22 -15 22 -10 0 5 5 1 11 -9 6 -9 14 -15 18 -12 5 2 14
-2 21 -10 7 -8 19 -15 26 -15 8 0 14 -5 14 -11 0 -5 4 -8 9 -5 4 3 19 -3 31
-14 12 -11 27 -17 31 -14 5 3 9 0 9 -6 0 -6 4 -9 9 -6 5 3 12 -1 15 -10 3 -8
10 -12 16 -9 6 3 13 -1 16 -9 3 -9 10 -14 14 -11 4 3 11 -2 14 -11 4 -9 13
-14 21 -10 10 3 15 -1 15 -11 0 -9 3 -13 7 -10 3 4 12 -1 20 -11 9 -10 11 -11
7 -2 -7 13 -5 13 9 1 9 -7 14 -17 11 -22 -3 -5 1 -7 8 -4 7 3 22 -6 32 -20 10
-14 24 -25 30 -25 6 0 4 5 -4 11 -13 9 -13 10 0 6 8 -2 14 -11 14 -20 -1 -9 2
-15 6 -12 5 3 11 1 15 -5 4 -6 11 -8 16 -5 5 4 9 -1 9 -10 0 -9 5 -13 10 -10
6 3 10 1 10 -4 0 -6 7 -11 15 -11 8 0 14 -6 13 -12 -2 -7 2 -12 9 -11 6 2 15
-7 18 -19 6 -16 9 -18 16 -7 7 11 9 11 9 -3 0 -9 9 -20 20 -23 11 -4 18 -11
15 -16 -4 -5 1 -9 10 -9 8 0 19 -9 23 -19 4 -11 9 -19 12 -18 11 3 59 -47 53
-56 -4 -6 0 -8 10 -4 11 4 17 1 17 -8 0 -8 5 -15 11 -15 5 0 7 -5 3 -12 -4 -7
-3 -8 5 -4 6 4 14 0 17 -8 3 -9 12 -16 20 -16 8 0 14 -5 14 -10 0 -6 16 -25
35 -43 19 -17 35 -38 35 -46 0 -8 3 -11 6 -8 4 3 19 -7 34 -23 16 -17 33 -30
40 -30 6 0 18 -7 26 -15 8 -8 22 -11 31 -8 12 5 14 3 8 -8 -7 -11 -5 -11 10 1
10 8 16 10 12 4 -5 -8 6 -13 33 -16 22 -2 40 -1 40 2 0 3 18 5 40 4 22 -1 37
3 34 7 -5 8 37 13 52 7 3 -2 10 5 15 14 5 9 16 15 23 12 7 -3 16 2 19 10 4 9
15 13 27 11 12 -2 20 1 20 10 0 8 7 11 19 8 10 -3 21 2 24 10 3 9 16 13 31 12
14 -2 26 1 26 6 0 5 9 9 19 9 11 0 23 5 26 11 4 6 13 8 21 5 8 -3 14 0 14 6 0
6 3 9 6 6 3 -4 21 0 40 8 19 8 36 14 39 14 3 0 6 0 8 1 9 3 45 10 60 11 9 1
17 6 17 10 0 4 5 8 11 8 5 0 7 -6 4 -12 -4 -7 -1 -6 7 2 7 9 20 15 28 15 8 -1
29 4 45 11 17 6 43 10 58 8 18 -2 30 3 34 12 3 8 9 14 15 14 5 0 6 -5 3 -11
-4 -6 2 -5 14 3 12 7 21 16 21 21 0 4 5 5 10 2 6 -3 10 -2 10 4 0 6 7 8 15 4
10 -3 15 0 13 8 -2 7 2 13 9 14 18 0 64 55 57 67 -4 6 -2 8 3 5 6 -4 19 5 28
19 11 18 12 24 4 18 -12 -6 -12 -5 0 9 7 9 10 17 5 17 -4 0 1 7 12 16 10 8 14
13 7 9 -9 -4 -11 5 -9 30 1 19 -1 35 -5 35 -4 0 -5 10 -1 22 3 14 2 19 -6 14
-7 -4 -12 -1 -12 8 0 9 -9 25 -20 36 -11 11 -20 22 -20 25 0 3 0 9 0 15 0 5
-8 6 -17 3 -13 -5 -15 -2 -10 11 4 10 3 15 -3 11 -6 -3 -10 -2 -10 3 0 6 -7
13 -16 16 -10 4 -13 2 -9 -7 4 -6 0 -4 -8 5 -8 10 -17 15 -20 11 -4 -3 -7 0
-7 7 0 7 -3 10 -7 7 -3 -4 -11 -3 -17 2 -11 9 -61 21 -108 24 -15 1 -29 5 -33
9 -4 3 -19 2 -35 -2 -21 -6 -32 -4 -41 6 -6 7 -15 11 -20 8 -5 -3 -12 2 -15
11 -4 9 -13 14 -20 11 -9 -3 -11 0 -7 11 4 9 -1 19 -11 25 -11 6 -15 16 -11
29 4 12 2 19 -6 19 -7 0 -10 3 -7 6 4 3 -5 22 -18 41 -13 19 -21 39 -18 44 3
5 -1 6 -9 3 -8 -3 -17 2 -20 10 -4 9 -13 16 -22 16 -8 0 -15 3 -15 8 0 9 -67
33 -97 35 -13 0 -23 5 -23 11 0 5 -3 7 -6 3 -3 -3 -17 -2 -30 3 -13 5 -24 6
-24 2 0 -9 -105 -6 -119 3 -6 3 -11 1 -11 -6 0 -10 -3 -10 -11 -2 -6 6 -18 9
-26 6 -18 -7 -63 16 -63 33 0 7 -9 18 -20 24 -11 6 -17 16 -14 22 4 7 3 8 -4
4 -7 -4 -12 -4 -12 1 0 8 -54 36 -66 33 -4 -1 -10 4 -14 10 -4 7 -19 13 -34
13 -14 1 -26 5 -26 9 0 4 -9 5 -20 3 -11 -2 -20 2 -20 8 0 8 -3 8 -9 -1 -7
-11 -9 -10 -15 3 -4 11 -10 14 -22 7 -8 -5 -35 -6 -60 -2 -28 4 -44 3 -44 -4
0 -6 -5 -5 -12 2 -7 7 -20 12 -29 12 -10 0 -21 9 -24 20 -3 11 -11 20 -16 20
-5 0 -9 6 -9 14 0 16 -60 67 -72 60 -4 -3 -8 0 -8 6 0 6 -4 8 -10 5 -5 -3 -10
-1 -10 4 0 6 -9 11 -20 11 -11 0 -20 4 -20 8 0 5 -14 9 -32 10 -17 0 -34 6
-38 13 -6 8 -9 8 -13 -2 -4 -9 -8 -11 -14 -4 -11 14 -83 14 -83 1 0 -6 -5 -4
-10 4 -8 12 -10 12 -10 1 0 -11 -3 -11 -17 0 -19 17 -17 16 -34 3 -25 -19 -96
-17 -108 3 -6 10 -11 14 -11 8 0 -5 -7 1 -16 13 -8 12 -24 22 -35 22 -11 0
-19 7 -19 16 0 8 -5 12 -11 8 -6 -3 -14 -2 -18 3 -9 14 -122 53 -114 40 4 -7
-1 -6 -10 2 -19 15 -167 23 -167 9 0 -4 -7 -8 -16 -8 -9 0 -12 5 -8 13 4 6 -2
4 -13 -6 -11 -10 -27 -15 -37 -11 -9 3 -16 2 -16 -4 0 -6 -10 -8 -22 -4 -12 3
-19 1 -15 -5 3 -5 0 -10 -8 -10 -8 0 -12 4 -9 9 8 12 -10 10 -24 -4 -9 -9 -13
-8 -17 5 -4 9 -13 13 -22 10 -12 -5 -14 -3 -8 8 7 11 5 11 -10 -1 -11 -9 -16
-10 -11 -2 5 8 0 12 -18 12 -14 0 -28 5 -31 10 -4 7 -12 7 -25 0 -14 -7 -21
-7 -27 2 -10 17 -203 20 -203 4 0 -6 -5 -4 -10 4 -5 8 -10 10 -10 4 0 -11 -7
-13 -82 -17 -20 -1 -36 -4 -36 -7 1 -18 -4 -21 -16 -11 -10 9 -16 8 -26 -4
-10 -12 -16 -13 -27 -4 -10 9 -12 9 -8 -2 4 -10 -2 -15 -16 -16 -12 -1 -26 -8
-30 -15 -5 -7 -9 -9 -9 -3 0 5 -5 4 -11 -2 -6 -6 -18 -9 -25 -6 -8 3 -14 0
-14 -7 0 -8 -9 -11 -25 -8 -13 3 -22 2 -20 -3 3 -4 1 -10 -5 -14 -10 -6 -14
13 -13 63 0 12 -3 22 -8 22 -4 0 -6 9 -4 20 3 13 0 18 -7 14 -7 -5 -9 -1 -5 9
3 10 2 17 -3 17 -5 0 -7 7 -4 15 4 8 1 15 -7 15 -7 0 -10 3 -7 6 3 3 -7 19
-23 36 -15 17 -27 36 -26 42 2 9 -2 11 -34 15 -5 0 -7 6 -4 11 4 6 3 10 -2 9
-16 -4 -43 13 -43 27 0 8 -4 14 -10 14 -5 0 -10 5 -10 11 0 5 3 8 8 6 4 -3 8
7 9 21 0 15 6 28 12 30 6 2 9 8 5 13 -3 5 0 9 6 9 6 0 9 4 6 9 -9 14 5 42 17
34 6 -4 8 0 4 10 -7 18 -7 18 75 21 25 0 50 4 54 8 4 4 14 2 22 -5 13 -9 14
-9 8 1 -4 6 -2 12 3 12 6 0 11 -4 11 -10 0 -5 7 -7 15 -4 8 4 12 11 8 17 -3 6
-1 7 6 3 6 -4 9 -11 6 -16 -3 -5 4 -8 15 -7 11 1 20 5 20 10 0 4 5 5 10 2 6
-3 10 -1 10 5 0 6 5 8 10 5 6 -4 9 -3 8 2 -1 4 4 19 12 33 7 14 14 33 15 43 1
11 8 23 16 28 12 7 12 9 -1 9 -9 0 -11 3 -5 8 6 4 16 18 23 31 11 19 11 22 0
16 -7 -3 -6 -1 3 7 9 7 14 19 12 26 -3 6 1 12 8 12 10 0 10 3 1 12 -9 9 -9 15
1 27 9 11 9 13 0 8 -6 -4 -15 -3 -18 3 -5 8 -11 7 -21 -1 -11 -9 -14 -8 -14 2
0 11 -2 11 -10 -1 -5 -8 -10 -10 -10 -4 0 12 -29 12 -48 0 -7 -4 -12 -2 -12 4
0 6 -4 8 -10 5 -20 -12 -50 -14 -50 -2 0 7 -4 6 -10 -3 -7 -11 -10 -11 -10 -2
0 7 -4 10 -10 7 -5 -3 -11 -1 -11 4 -1 6 -2 17 -3 24 -1 6 1 14 5 17 4 3 9 14
11 25 1 11 10 26 18 33 13 12 13 13 0 6 -12 -6 -12 -4 1 12 9 10 15 27 14 36
-2 10 2 21 7 25 7 4 8 1 3 -7 -5 -9 -4 -11 4 -6 9 6 9 11 -1 24 -7 9 -8 13 -2
9 17 -10 28 54 12 65 -7 4 -18 6 -25 3 -6 -2 -14 1 -17 8 -3 9 -5 8 -5 -1 -1
-7 -5 -10 -11 -7 -15 9 -93 10 -108 2 -7 -5 -12 -3 -12 3 0 8 -6 8 -20 0 -11
-6 -20 -7 -20 -2 0 10 -30 9 -48 -2 -7 -4 -12 -2 -12 5 0 8 -4 8 -15 -1 -11
-9 -15 -9 -15 -1 0 9 -5 9 -20 1 -15 -8 -20 -8 -20 2 0 10 -2 10 -9 -1 -6 -9
-10 -10 -12 -2 -3 7 -7 10 -10 7z m-157 -904 c8 -8 15 -9 25 -1 9 8 13 8 13 0
0 -6 7 -11 15 -11 8 0 15 -5 15 -11 0 -5 5 -7 10 -4 6 3 10 -1 10 -10 0 -10 5
-13 12 -9 7 5 9 0 6 -14 -4 -15 -2 -19 8 -15 10 4 14 -4 14 -32 0 -20 4 -34 8
-31 4 2 9 -4 9 -15 2 -18 0 -19 -15 -7 -15 12 -15 11 1 -14 10 -17 13 -29 7
-33 -6 -4 -8 -11 -5 -16 4 -5 1 -9 -5 -9 -7 0 -10 -7 -6 -15 5 -14 -10 -62
-24 -75 -5 -5 -8 -16 -16 -53 -2 -11 -11 -26 -21 -35 -10 -10 -19 -23 -21 -30
-1 -7 -14 -25 -27 -38 -14 -14 -25 -29 -25 -35 0 -6 -4 -8 -9 -5 -5 3 -11 -3
-14 -14 -3 -13 -10 -18 -21 -14 -13 5 -15 2 -10 -12 4 -11 4 -16 0 -12 -5 4
-22 -8 -38 -25 -17 -18 -28 -26 -24 -19 4 6 2 12 -3 12 -6 0 -11 -4 -11 -9 0
-5 -14 -16 -30 -25 -20 -9 -28 -10 -24 -3 3 7 -1 4 -9 -5 -8 -10 -17 -15 -21
-11 -4 4 -11 1 -16 -7 -9 -13 -10 -13 -11 0 0 10 -3 8 -9 -5 l-9 -20 0 20 c-1
17 -3 17 -11 5 -8 -12 -10 -12 -10 -1 0 11 -5 10 -20 -4 -20 -18 -21 -18 -14
0 6 14 4 17 -9 12 -9 -3 -24 1 -33 11 -10 9 -20 17 -23 17 -3 0 -5 3 -3 8 1 4
-5 7 -15 7 -9 0 -14 3 -10 6 3 4 -1 13 -9 21 -8 8 -12 19 -9 24 4 5 1 9 -4 9
-6 0 -11 10 -11 23 0 45 -3 62 -14 69 -7 5 -4 8 8 8 16 0 17 2 5 17 -8 10 -9
14 -2 10 7 -5 12 0 12 13 1 11 1 29 2 40 0 11 5 20 10 20 6 0 7 5 4 10 -3 6
-1 10 5 10 7 0 9 7 6 15 -3 9 1 18 8 21 8 3 13 14 11 25 -2 11 -1 18 3 15 9
-5 32 20 25 28 -4 3 4 15 16 25 14 12 20 25 15 32 -4 7 -3 9 4 5 6 -3 16 3 22
14 6 11 15 18 19 16 4 -3 14 6 21 19 7 14 26 30 42 37 16 8 26 18 23 26 -3 7
0 10 6 7 5 -4 16 -1 24 5 8 7 15 9 15 6 0 -4 7 0 16 9 9 9 22 14 29 11 8 -3
16 3 20 12 5 12 8 13 14 4 6 -10 10 -10 19 1 14 16 47 16 64 -1z m-1692 -82
c0 -5 -5 -10 -11 -10 -5 0 -7 5 -4 10 3 6 8 10 11 10 2 0 4 -4 4 -10z m-860
-784 c0 -2 -7 -7 -16 -10 -8 -3 -12 -2 -9 4 6 10 25 14 25 6z"/>
<path d="M567 5307 c-1 -5 -12 -10 -24 -11 -12 0 -34 -14 -49 -31 -28 -29 -30
-33 -33 -56 0 -5 -6 -7 -13 -3 -7 5 -8 3 -3 -6 4 -7 2 -16 -6 -21 -12 -7 -12
-9 0 -9 10 0 11 -3 2 -13 -8 -10 -6 -19 9 -35 11 -12 20 -26 20 -32 0 -5 5
-10 10 -10 6 0 10 -5 10 -11 0 -7 8 -18 18 -25 11 -9 13 -13 4 -14 -7 0 -10
-5 -7 -10 4 -6 11 -8 16 -5 8 6 14 -17 9 -40 -1 -5 2 -7 6 -3 8 9 34 -36 34
-59 0 -8 5 -11 10 -8 6 3 11 -1 11 -9 3 -33 4 -37 19 -46 8 -5 11 -10 6 -10
-5 0 -3 -7 4 -15 6 -8 9 -19 5 -25 -3 -5 -1 -10 5 -10 7 0 10 -6 7 -14 -3 -8
1 -20 9 -27 8 -7 13 -18 10 -26 -3 -7 -1 -13 4 -13 6 0 10 -7 10 -16 0 -9 5
-12 13 -8 8 5 8 2 -2 -9 -10 -13 -10 -17 -1 -17 7 0 10 -7 6 -16 -5 -12 -2
-15 10 -10 13 5 14 4 6 -7 -9 -10 -8 -17 0 -25 7 -7 8 -12 4 -12 -5 0 -2 -8 5
-17 9 -11 10 -14 2 -9 -9 5 -11 2 -7 -8 3 -9 10 -16 15 -16 6 0 5 -10 -2 -22
-10 -18 -9 -20 4 -15 12 4 14 2 10 -10 -3 -8 0 -19 8 -24 10 -6 10 -9 2 -9 -9
0 -10 -7 -3 -26 6 -14 8 -30 4 -35 -3 -5 0 -9 5 -9 6 0 11 -5 11 -11 0 -5 -4
-8 -8 -5 -5 3 -9 -1 -9 -9 0 -8 4 -12 8 -10 3 3 9 -4 12 -15 3 -11 1 -18 -4
-14 -5 3 -9 0 -9 -5 0 -6 5 -11 12 -11 6 0 8 -3 5 -6 -3 -4 -2 -16 4 -27 7
-11 7 -17 1 -13 -6 3 -9 -10 -8 -33 1 -33 3 -37 15 -28 12 10 12 8 0 -13 -16
-30 -17 -39 -8 -67 5 -14 4 -23 -4 -27 -7 -2 -6 -5 4 -5 18 -1 18 -26 0 -60
-7 -13 -9 -21 -3 -17 5 3 13 -1 16 -10 4 -11 2 -15 -7 -11 -14 5 -17 -19 -5
-39 4 -5 3 -16 -2 -24 -5 -8 -5 -21 1 -31 5 -11 5 -20 0 -23 -5 -3 -8 -21 -7
-40 1 -19 -2 -32 -5 -30 -4 2 -6 -18 -5 -45 1 -27 -2 -47 -6 -44 -5 2 -8 -14
-8 -37 0 -23 -4 -39 -8 -36 -5 3 -9 -1 -9 -9 0 -8 4 -12 9 -9 4 3 8 0 8 -5 0
-6 -4 -11 -8 -11 -4 0 -8 -9 -8 -20 0 -11 6 -20 14 -20 7 0 11 -3 9 -7 -6 -10
566 -9 581 1 7 4 12 3 12 -1 0 -7 74 -9 90 -3 3 1 9 2 15 1 31 -7 95 -6 95 0
0 4 12 4 28 0 24 -6 88 -7 102 -1 3 1 9 2 15 1 31 -7 95 -6 95 0 0 4 12 4 28
0 24 -6 88 -7 102 -1 3 1 9 2 15 1 31 -7 95 -6 95 0 0 4 12 4 28 0 24 -6 88
-7 102 -1 3 1 9 2 15 1 31 -7 95 -6 95 0 0 4 12 4 28 0 24 -6 88 -7 102 -1 3
1 9 2 15 1 31 -7 95 -6 95 0 0 4 12 4 28 0 24 -6 88 -7 102 -1 3 1 9 2 15 1
31 -7 95 -6 95 0 0 4 12 4 28 0 24 -6 88 -7 102 -1 3 1 9 2 15 1 31 -7 95 -6
95 0 0 4 12 4 28 0 24 -6 88 -7 102 -1 3 1 9 2 15 1 31 -7 95 -6 95 0 0 4 12
4 28 0 24 -6 88 -7 102 -1 3 1 9 2 15 1 31 -7 95 -6 95 0 0 4 12 4 28 0 24 -6
88 -7 102 -1 3 1 9 2 15 1 34 -7 95 -6 95 1 0 5 5 6 10 3 15 -9 111 -12 116
-3 3 4 15 4 27 0 29 -10 2580 -8 2595 2 7 4 12 3 12 -1 0 -7 74 -9 90 -3 3 1
9 2 15 1 31 -7 95 -6 95 0 0 4 12 4 28 0 24 -6 88 -7 102 -1 3 1 9 2 15 1 31
-7 95 -6 95 0 0 4 12 4 28 0 24 -6 88 -7 102 -1 3 1 9 2 15 1 31 -7 95 -6 95
0 0 4 12 4 28 0 24 -6 88 -7 102 -1 3 1 9 2 15 1 31 -7 95 -6 95 0 0 4 12 4
28 0 24 -6 88 -7 102 -1 3 1 9 2 15 1 31 -7 95 -6 95 0 0 4 12 4 28 0 24 -6
88 -7 102 -1 3 1 9 2 15 1 31 -7 95 -6 95 0 0 4 12 4 27 0 25 -6 89 -7 103 -1
3 1 9 2 15 1 31 -7 95 -6 95 0 0 4 12 4 28 0 23 -6 97 -7 97 -1 0 8 45 4 45
-4 0 -6 7 -2 15 8 8 11 15 16 15 10 0 -5 10 6 21 23 12 18 25 33 31 33 5 0 6
5 2 12 -5 7 -2 9 8 6 10 -4 14 0 14 16 -1 11 4 20 11 19 7 -2 10 3 7 10 -2 7
6 25 20 40 13 14 21 28 18 31 -3 3 0 6 6 6 7 0 12 7 12 15 0 7 8 19 18 24 9 6
13 11 9 11 -5 0 -1 7 7 16 9 8 13 20 10 26 -4 6 -3 9 2 6 5 -2 19 6 31 19 12
13 18 23 13 23 -6 0 -10 5 -10 11 0 6 7 9 15 5 9 -3 15 0 15 9 0 8 5 15 11 15
5 0 8 4 4 9 -3 5 4 13 16 16 17 6 19 9 8 16 -11 7 -11 9 -1 9 7 0 10 5 7 10
-4 6 -1 9 7 8 7 -2 12 5 12 14 -1 10 1 16 5 15 3 -1 20 11 36 27 17 16 23 26
15 22 -8 -4 -6 0 5 9 11 9 19 21 17 26 -1 5 4 9 11 9 8 0 20 11 27 25 7 14 17
25 22 25 4 0 8 7 8 17 0 9 3 14 6 10 9 -9 34 19 34 39 0 14 3 14 15 4 13 -11
14 -10 9 4 -4 11 -1 16 10 16 9 0 15 3 15 8 -3 19 2 33 11 27 5 -3 15 5 21 19
7 14 16 23 20 20 5 -3 9 0 9 6 0 6 25 36 55 67 30 31 55 52 55 47 0 -5 6 2 13
16 7 14 19 25 27 25 8 1 14 6 13 12 -2 7 6 15 17 18 10 3 22 15 26 27 5 16 8
18 15 7 7 -12 9 -12 9 0 0 15 57 71 72 71 5 0 6 5 3 10 -3 6 1 10 9 10 9 0 16
4 16 8 0 5 11 15 25 22 14 7 25 19 25 27 0 7 6 13 14 13 8 0 16 7 20 15 3 8
10 15 16 15 5 0 18 8 28 18 34 32 72 62 72 56 0 -3 12 8 26 23 15 15 23 21 18
13 -5 -9 1 -5 12 8 14 15 27 22 34 17 9 -5 11 -4 6 3 -4 7 -2 12 5 12 7 0 9 3
6 7 -4 4 5 13 20 20 40 18 65 35 86 58 10 11 22 20 26 20 4 0 16 8 26 18 9 10
24 16 32 13 8 -3 12 -2 9 3 -8 13 21 34 35 25 8 -5 9 -3 5 5 -5 8 -1 14 12 18
11 3 23 12 26 20 3 8 10 11 16 8 5 -3 10 1 10 10 0 9 4 13 10 10 6 -3 7 1 4 9
-3 9 -1 16 5 16 6 0 8 7 4 17 -4 11 -3 14 5 9 8 -5 11 0 8 16 -2 13 1 29 6 36
7 8 7 12 -1 12 -6 0 -11 7 -11 16 0 10 -6 14 -15 10 -8 -3 -14 0 -12 6 1 7
-19 12 -55 13 -32 1 -58 -2 -58 -6 0 -5 -7 -6 -15 -3 -8 4 -15 1 -15 -6 0 -7
-8 -10 -20 -7 -11 3 -18 0 -17 -7 1 -6 -4 -10 -10 -8 -7 1 -13 -6 -13 -15 0
-15 -2 -16 -10 -3 -7 12 -10 12 -10 1 0 -8 -6 -11 -17 -7 -10 4 -14 4 -11 0
10 -9 -15 -32 -29 -27 -7 3 -13 0 -13 -6 0 -6 -7 -11 -15 -11 -14 0 -61 -25
-75 -40 -3 -3 -9 -5 -15 -6 -24 -3 -55 -17 -55 -26 0 -5 -6 -8 -12 -5 -7 2
-22 -3 -32 -12 -11 -9 -16 -10 -12 -3 4 7 -7 4 -25 -7 -26 -16 -36 -18 -48 -8
-10 8 -13 8 -8 1 8 -13 -19 -27 -34 -18 -5 3 -9 0 -9 -7 0 -8 -4 -8 -15 1 -13
11 -14 10 -10 -2 5 -11 -3 -14 -37 -13 -24 0 -49 -3 -56 -9 -9 -7 -16 -6 -21
2 -4 7 -15 10 -24 6 -9 -3 -15 -10 -12 -14 2 -4 -6 -7 -18 -6 -12 1 -31 -4
-42 -11 -11 -7 -27 -13 -37 -13 -10 0 -18 -4 -18 -10 0 -5 -8 -6 -17 -3 -12 5
-15 2 -10 -10 4 -12 1 -15 -14 -12 -10 2 -19 -1 -19 -6 0 -6 -5 -7 -12 -3 -7
5 -8 3 -4 -5 5 -8 0 -14 -13 -18 -11 -3 -18 -9 -15 -14 3 -5 -1 -7 -8 -4 -7 3
-21 -7 -31 -22 -13 -19 -17 -22 -13 -8 5 15 0 13 -20 -10 -14 -16 -23 -24 -20
-18 5 9 2 11 -8 7 -9 -3 -14 -9 -11 -13 2 -4 -11 -14 -30 -21 -23 -9 -31 -18
-27 -28 3 -10 1 -13 -5 -9 -6 4 -19 0 -27 -9 -9 -8 -16 -12 -16 -8 0 3 -6 2
-13 -5 -10 -8 -17 -7 -26 2 -10 9 -11 8 -5 -6 5 -13 2 -16 -10 -11 -9 3 -16 1
-16 -5 0 -6 -6 -8 -14 -5 -8 3 -17 0 -21 -6 -5 -8 -11 -7 -23 2 -12 10 -14 10
-8 1 5 -9 -1 -13 -21 -14 -15 -1 -32 -1 -36 0 -19 3 -92 -29 -89 -39 1 -6 -2
-9 -7 -5 -6 3 -18 -3 -28 -15 -10 -11 -24 -20 -32 -20 -8 0 -11 -3 -8 -6 3 -4
2 -15 -4 -25 -5 -11 -6 -19 -2 -19 4 0 9 -19 10 -42 1 -22 7 -44 13 -48 15
-10 15 -21 -2 -31 -10 -7 -10 -9 3 -9 12 0 15 -7 11 -26 -3 -16 1 -30 9 -35
12 -7 11 -9 -1 -9 -13 0 -13 -1 0 -10 13 -8 13 -10 1 -10 -11 0 -10 -4 4 -13
14 -11 15 -16 5 -22 -9 -6 -11 -4 -5 5 5 8 4 11 -2 7 -6 -4 -10 -23 -9 -42 1
-25 -3 -35 -14 -35 -13 0 -13 -1 0 -10 11 -7 11 -10 2 -10 -7 0 -10 -4 -7 -10
3 -6 2 -10 -4 -10 -5 0 -8 -11 -6 -25 1 -16 -3 -25 -11 -25 -8 0 -14 -3 -13
-7 2 -16 -14 -53 -23 -53 -5 0 -7 -3 -5 -7 6 -10 -18 -34 -27 -27 -3 2 -2 -2
4 -8 7 -9 1 -20 -22 -41 -18 -16 -26 -26 -18 -22 8 4 -2 -9 -22 -29 -21 -20
-36 -36 -33 -36 3 0 -3 -8 -12 -18 -10 -11 -21 -17 -25 -15 -4 2 -10 -6 -13
-18 -4 -11 -9 -18 -12 -15 -3 3 -16 -6 -29 -19 -13 -14 -30 -25 -38 -25 -10 0
-13 -6 -9 -17 4 -11 3 -14 -5 -9 -7 4 -12 2 -12 -3 0 -6 -9 -11 -21 -11 -11 0
-17 -4 -14 -10 3 -5 2 -10 -4 -10 -5 0 -17 -7 -25 -16 -11 -11 -16 -12 -16 -3
0 7 -7 5 -16 -7 -8 -10 -13 -12 -9 -4 6 13 5 13 -7 0 -7 -8 -24 -15 -38 -15
-14 0 -27 -3 -30 -7 -7 -9 -110 -16 -104 -7 2 4 0 10 -6 14 -5 3 -10 1 -10 -5
0 -7 -7 -5 -16 4 -8 9 -21 13 -27 9 -7 -3 -9 -3 -5 2 4 4 0 14 -8 22 -10 11
-12 19 -4 27 5 7 7 16 3 20 -4 3 2 13 13 22 10 8 12 12 4 8 -13 -7 -13 -6 0
12 27 35 48 53 56 46 4 -4 4 -2 1 4 -4 6 3 20 15 30 12 11 18 13 13 5 -6 -10
-4 -12 4 -7 7 5 10 15 7 23 -4 9 -2 11 6 7 6 -4 17 1 24 10 7 10 15 17 18 17
20 -3 26 0 21 9 -3 5 1 10 10 10 9 0 13 5 10 10 -3 6 1 10 9 10 9 0 16 7 16
16 0 8 4 12 10 9 6 -3 10 -1 10 6 0 6 7 17 14 23 8 6 16 18 18 26 2 8 10 21
18 28 12 11 12 12 1 6 -9 -4 -4 7 9 26 13 18 19 31 14 27 -11 -6 -11 44 1 62
3 6 1 11 -5 11 -6 0 -9 4 -5 10 3 5 -3 18 -15 30 -11 11 -17 20 -12 20 4 0 -1
5 -11 11 -9 5 -22 7 -29 3 -7 -4 -8 -3 -4 4 7 12 1 14 -56 15 -16 1 -28 6 -28
12 0 5 -5 3 -10 -5 -5 -8 -10 -11 -10 -7 0 4 -10 3 -21 -4 -15 -8 -19 -8 -15
0 4 6 3 11 -2 11 -6 0 -12 -7 -15 -15 -4 -8 -15 -12 -27 -10 -12 2 -23 -2 -26
-9 -3 -8 -18 -13 -34 -12 -21 2 -26 -2 -22 -13 3 -9 1 -12 -6 -7 -7 4 -12 2
-12 -4 0 -6 -4 -8 -10 -5 -6 3 -10 1 -10 -4 0 -6 -7 -11 -15 -11 -7 0 -19 -8
-24 -17 -6 -10 -11 -13 -11 -8 0 6 -9 -5 -20 -23 -11 -18 -24 -30 -29 -27 -5
3 -13 0 -17 -6 -4 -8 -3 -9 4 -5 20 12 13 -9 -7 -23 -11 -8 -17 -20 -14 -27 2
-6 0 -15 -6 -19 -15 -9 -14 -28 2 -19 10 6 10 4 0 -7 -14 -14 -17 -51 -6 -63
9 -9 11 -46 2 -40 -4 2 -8 -4 -8 -13 -1 -39 -5 -53 -13 -53 -5 0 -6 -4 -3 -10
3 -5 1 -10 -4 -10 -6 0 -11 -7 -11 -15 0 -8 -5 -15 -12 -15 -6 0 -8 -3 -5 -6
4 -4 -3 -15 -15 -25 -11 -11 -17 -19 -12 -19 5 -1 -2 -7 -16 -15 -14 -7 -24
-17 -22 -22 1 -4 -2 -9 -8 -9 -5 -1 -15 -2 -21 -3 -5 0 -8 -4 -5 -9 2 -4 -7
-12 -20 -19 -18 -8 -23 -8 -18 0 3 7 0 5 -8 -3 -7 -9 -24 -15 -38 -14 -14 1
-28 -3 -32 -10 -6 -8 -8 -8 -8 0 0 6 -12 10 -27 10 -30 -2 -66 21 -57 35 3 5
-2 9 -11 9 -9 0 -13 5 -10 10 3 6 1 10 -5 10 -6 0 -8 5 -5 10 3 6 1 10 -4 10
-6 0 -11 8 -11 18 0 10 -3 22 -7 26 -11 11 -10 46 1 46 8 0 8 2 0 8 -13 8 -15
42 -2 42 4 0 8 5 8 11 0 5 -6 7 -12 3 -10 -6 -10 -4 0 8 10 13 10 17 0 21 -9
4 -9 6 2 6 11 1 15 12 15 40 0 22 4 39 10 38 5 -1 9 6 7 16 -2 9 4 20 12 23 9
3 13 11 9 17 -3 5 1 15 9 21 15 11 18 17 18 37 0 5 4 7 10 4 6 -3 10 -1 10 5
0 17 40 71 49 66 4 -3 20 6 37 20 29 25 29 25 2 8 -16 -9 -28 -14 -28 -11 0 3
16 15 36 28 20 12 45 31 56 43 12 11 18 14 14 6 -5 -9 -2 -9 7 2 8 10 18 14
22 10 5 -4 5 -2 2 4 -7 13 16 38 26 28 3 -3 8 4 12 15 3 12 11 19 16 16 5 -4
9 -1 9 5 0 6 5 8 10 5 6 -3 10 2 10 12 0 13 2 15 9 5 6 -10 11 -10 21 4 8 9
15 21 16 28 1 6 3 16 4 21 6 28 -1 56 -12 49 -9 -5 -9 -2 1 9 9 12 10 17 2 17
-7 0 -10 3 -8 8 7 11 -12 54 -22 48 -4 -3 -7 6 -5 19 1 17 -3 25 -12 25 -9 0
-12 5 -8 12 4 6 -1 17 -11 25 -11 7 -16 13 -12 13 11 0 -95 103 -123 120 -29
17 -66 19 -63 3 1 -6 -6 -9 -17 -6 -12 3 -20 0 -20 -6 0 -7 -4 -9 -10 -6 -6 3
-10 1 -10 -5 0 -6 -4 -9 -9 -5 -6 3 -14 -3 -20 -12 -5 -10 -13 -18 -18 -17
-17 2 -43 -9 -43 -18 0 -5 -4 -6 -10 -3 -6 3 -10 1 -10 -4 0 -6 -7 -11 -15
-11 -8 0 -15 -5 -15 -11 0 -5 -4 -8 -9 -4 -6 3 -15 -4 -21 -15 -6 -11 -16 -18
-21 -14 -6 3 -21 -6 -33 -19 -13 -14 -26 -23 -29 -21 -3 3 -10 -4 -17 -15 -6
-12 -14 -19 -19 -17 -4 3 -14 -4 -21 -15 -8 -10 -18 -19 -23 -19 -4 0 -18 -11
-31 -25 -13 -14 -29 -25 -36 -25 -7 0 -10 -7 -6 -15 3 -8 0 -14 -7 -12 -7 1
-11 -4 -10 -10 2 -7 -2 -12 -9 -10 -7 1 -12 -2 -13 -8 0 -5 -4 -16 -8 -23 -5
-7 -2 -14 8 -18 13 -5 13 -9 3 -22 -10 -12 -10 -14 0 -8 11 6 18 -18 13 -47
-1 -5 3 -6 9 -2 9 5 15 -15 11 -37 0 -5 4 -8 9 -8 6 0 10 -10 10 -23 0 -13 6
-29 13 -36 10 -11 9 -12 -2 -6 -9 5 -12 3 -9 -6 3 -8 1 -22 -4 -33 -7 -13 -7
-16 1 -12 6 4 11 3 11 -3 0 -5 -5 -13 -10 -16 -8 -5 -7 -11 1 -21 9 -11 8 -14
-7 -15 -11 0 -14 -3 -8 -5 8 -4 9 -16 2 -44 -6 -23 -15 -37 -21 -33 -5 3 -7 2
-4 -4 8 -12 -52 -132 -81 -163 -12 -13 -19 -27 -16 -32 3 -4 -2 -8 -10 -8 -9
0 -16 -5 -16 -11 0 -5 -5 -7 -10 -4 -6 4 -10 3 -9 -2 3 -18 -1 -34 -8 -30 -5
3 -14 -1 -21 -9 -7 -8 -9 -14 -5 -14 4 0 -7 -8 -24 -16 -18 -9 -30 -21 -26
-27 4 -6 -2 -8 -15 -5 -15 4 -22 2 -22 -8 0 -8 -9 -14 -20 -14 -11 0 -23 -7
-26 -15 -4 -8 -10 -13 -14 -10 -4 3 -22 -2 -39 -11 -17 -8 -35 -13 -41 -9 -5
3 -10 1 -10 -6 0 -8 -5 -7 -17 2 -11 10 -14 10 -9 2 5 -9 1 -13 -13 -13 -10 0
-22 6 -24 13 -3 7 -6 4 -6 -7 -1 -15 -4 -16 -16 -6 -8 6 -19 9 -25 5 -6 -4 -9
-1 -8 6 2 7 -4 14 -12 14 -8 0 -14 6 -12 13 1 7 -5 15 -14 19 -13 5 -13 7 -2
14 11 7 11 9 -1 9 -11 0 -11 3 0 17 10 11 10 14 2 9 -15 -9 -17 6 -3 20 5 5
11 18 13 29 6 35 30 75 40 68 6 -3 7 -1 3 5 -3 6 -2 13 4 17 6 4 7 11 4 17 -4
7 -2 8 4 4 7 -4 12 -2 12 4 0 6 5 8 12 4 7 -5 9 0 6 14 -5 16 -2 20 13 17 11
-2 17 0 14 5 -3 5 3 17 14 27 11 9 18 20 15 25 -3 4 2 11 10 14 9 3 13 10 10
15 -3 5 0 9 6 9 7 0 10 7 6 15 -3 8 -1 15 5 15 6 0 8 4 4 9 -3 5 -1 12 4 15 5
3 7 16 3 28 -4 16 -2 19 9 13 12 -8 12 -6 0 8 -7 9 -11 17 -7 17 3 0 0 16 -8
35 -8 19 -12 35 -9 35 3 0 -7 10 -23 22 -16 12 -32 27 -36 33 -5 6 -8 4 -8 -5
0 -13 -1 -13 -10 0 -5 8 -10 11 -10 5 0 -5 -5 -3 -10 5 -8 13 -10 13 -10 1 0
-11 -3 -12 -12 -3 -6 6 -17 8 -27 3 -9 -5 -24 -7 -33 -6 -9 2 -19 -4 -22 -12
-5 -12 -9 -13 -21 -3 -8 7 -15 8 -15 3 0 -5 -16 -15 -35 -23 -19 -8 -43 -24
-52 -37 -10 -13 -23 -23 -30 -23 -13 0 -49 -59 -45 -72 1 -5 -6 -8 -16 -8 -14
0 -15 -2 -2 -10 12 -8 12 -10 1 -10 -8 0 -11 -3 -8 -6 3 -4 2 -16 -4 -27 -9
-15 -8 -18 3 -12 10 6 10 5 2 -4 -6 -7 -9 -25 -5 -43 9 -45 1 -109 -13 -101
-6 4 -5 -1 3 -10 10 -13 10 -17 1 -17 -7 0 -10 -7 -6 -16 3 -8 2 -13 -2 -10
-4 3 -14 -4 -21 -16 -10 -16 -10 -19 1 -13 7 3 5 0 -4 -8 -10 -8 -18 -20 -18
-27 0 -7 -3 -11 -6 -7 -8 8 -44 -25 -38 -35 3 -4 0 -8 -5 -8 -6 0 -20 -9 -31
-20 -12 -12 -26 -18 -32 -14 -7 4 -8 3 -4 -4 6 -11 -6 -16 -26 -13 -5 0 -8 -4
-8 -10 0 -5 -4 -7 -10 -4 -5 3 -10 2 -10 -4 0 -5 -8 -8 -17 -6 -10 1 -26 -2
-37 -7 -13 -7 -16 -7 -12 1 10 15 -7 14 -22 -1 -7 -7 -12 -8 -12 -2 0 6 -15
10 -32 10 -21 -1 -32 3 -31 11 2 7 0 12 -5 12 -21 -4 -42 2 -38 10 3 5 0 11
-8 14 -15 6 -46 62 -46 84 0 7 -4 13 -10 13 -5 0 -8 13 -6 29 3 23 0 28 -13
23 -13 -5 -14 -3 -4 9 12 15 11 48 -2 69 -3 6 -1 10 4 10 6 0 11 12 11 26 0
17 4 23 13 18 8 -5 8 -2 -2 9 -8 11 -9 17 -3 17 6 0 9 6 6 14 -3 8 0 17 7 22
8 5 10 3 4 -7 -7 -12 -6 -12 6 0 12 12 12 14 0 19 -10 3 -8 10 10 24 13 11 17
16 9 12 -12 -6 -13 -5 -3 8 7 8 10 18 6 21 -3 4 1 7 10 7 10 0 17 7 17 15 0 8
5 15 10 15 6 0 10 4 10 10 0 16 42 60 51 54 5 -3 6 2 3 11 -5 11 -2 14 12 8
13 -5 16 -3 11 10 -3 9 -1 19 5 23 7 5 8 2 2 -7 -4 -8 11 5 34 28 23 23 52 45
63 48 12 4 18 13 15 20 -3 9 0 12 8 9 8 -3 23 5 35 17 12 13 21 19 21 15 0 -4
12 5 26 19 14 14 30 22 36 19 7 -4 8 -2 4 4 -4 7 -3 12 1 12 5 0 18 7 29 16
10 8 13 12 6 9 -11 -6 -11 -3 -1 13 7 12 17 18 21 16 4 -3 8 5 8 18 0 13 5 29
11 35 8 8 6 16 -10 29 -11 10 -21 24 -21 32 0 7 -4 10 -10 7 -5 -3 -10 -2 -10
2 0 5 -9 14 -21 21 -12 8 -18 9 -14 3 9 -16 -1 -14 -46 9 -22 12 -45 18 -51
14 -7 -4 -8 -3 -4 4 6 11 -5 15 -31 11 -3 0 -10 6 -15 15 -5 9 -13 14 -19 11
-5 -4 -9 -1 -9 4 0 6 -7 11 -15 11 -8 0 -15 6 -15 13 0 9 -2 9 -9 -1 -6 -10
-10 -8 -14 8 -3 12 -10 19 -16 15 -6 -3 -11 1 -11 10 0 9 -4 14 -8 11 -5 -3
-14 4 -22 14 -8 10 -17 17 -22 14 -4 -3 -8 2 -8 10 0 8 -6 19 -14 23 -8 4 -15
11 -16 15 -2 19 -13 37 -19 34 -4 -3 -8 5 -8 16 -1 12 -6 24 -10 27 -4 3 -9
15 -10 26 -5 43 -9 61 -17 74 -7 11 -6 12 5 6 12 -8 12 -6 1 8 -8 9 -11 20 -8
25 3 6 -1 15 -9 22 -8 7 -12 17 -8 23 4 6 0 8 -11 4 -9 -4 -15 -3 -12 1 9 15
-31 40 -72 44 -22 2 -38 0 -36 -3 2 -4 -3 -10 -12 -13 -9 -3 -12 -2 -8 5 7 13
-38 -12 -48 -26 -5 -6 -8 -6 -8 -1 0 6 -7 1 -16 -10 -8 -10 -13 -12 -9 -4 4
10 2 9 -8 -2 -8 -10 -20 -18 -26 -18 -7 0 -9 -4 -6 -10 3 -5 2 -10 -4 -10 -6
0 -24 -13 -40 -29 -16 -16 -33 -26 -37 -23 -4 4 -4 2 -1 -4 7 -12 -68 -85 -78
-76 -3 3 -5 -2 -5 -11 0 -9 -4 -16 -9 -14 -5 1 -17 -7 -26 -18 -9 -11 -14 -14
-10 -8 4 9 1 11 -9 7 -9 -3 -13 -11 -9 -17 4 -7 0 -8 -13 -3 -10 4 -15 4 -11
0 7 -7 -30 -39 -45 -39 -4 0 -17 -8 -28 -18 -12 -10 -25 -15 -29 -12 -5 3 -12
-2 -15 -11 -4 -9 -9 -14 -12 -11 -4 3 -13 -1 -21 -9 -9 -8 -22 -13 -29 -10 -8
3 -14 -1 -14 -9 0 -8 -8 -12 -19 -10 -11 2 -22 -3 -25 -12 -4 -9 -14 -13 -26
-10 -11 3 -18 1 -14 -4 3 -5 -4 -9 -15 -9 -10 0 -22 -6 -24 -12 -4 -9 -6 -9
-6 1 -1 11 -5 10 -16 -5 -11 -14 -14 -15 -15 -4 0 12 -2 12 -9 2 -4 -7 -17
-14 -29 -15 -11 0 -18 -5 -15 -10 3 -5 -5 -7 -18 -5 -13 2 -30 -4 -37 -12 -12
-13 -13 -13 -6 0 7 12 5 13 -8 3 -8 -7 -18 -10 -21 -6 -4 3 -7 1 -7 -7 0 -10
-4 -10 -17 1 -9 8 -14 9 -10 3 8 -14 -15 -24 -43 -19 -11 2 -18 0 -15 -5 7
-11 -50 -42 -59 -33 -3 4 -6 -1 -6 -11 0 -9 -4 -14 -10 -11 -5 3 -10 1 -10 -4
0 -20 -3 -26 -19 -39 -13 -11 -13 -12 -1 -7 12 5 12 4 -1 -7 -11 -9 -13 -21
-8 -40 4 -15 4 -30 0 -34 -3 -4 0 -4 7 0 8 5 12 1 12 -11 0 -10 9 -25 19 -33
11 -7 18 -17 16 -21 -3 -3 5 -19 17 -35 13 -15 17 -25 10 -20 -18 11 -14 -5 6
-21 10 -9 11 -12 2 -7 -12 6 -13 4 -2 -7 6 -7 12 -24 12 -37 0 -13 4 -21 8
-18 5 3 9 -1 9 -9 0 -8 -5 -15 -10 -15 -5 0 -3 -8 4 -17 10 -11 10 -14 2 -9
-7 4 -13 3 -13 -3 0 -5 6 -12 13 -14 8 -4 9 -8 2 -14 -6 -4 -12 -24 -13 -43
-2 -19 -7 -37 -11 -40 -5 -3 -11 -16 -13 -30 -2 -14 -9 -24 -15 -23 -6 1 -9
-6 -6 -17 3 -11 0 -20 -6 -20 -6 0 -11 -7 -11 -15 0 -8 -5 -15 -11 -15 -5 0
-7 -5 -3 -12 5 -7 2 -9 -9 -5 -11 4 -14 2 -10 -9 3 -7 0 -14 -6 -14 -6 0 -11
-7 -11 -16 0 -9 -5 -12 -12 -8 -8 5 -9 2 -5 -10 4 -10 3 -15 -3 -11 -6 4 -14
-4 -19 -17 -6 -14 -10 -17 -11 -8 -1 9 -5 6 -10 -7 -5 -13 -17 -23 -25 -23
-10 0 -13 -5 -9 -12 5 -8 2 -9 -9 -5 -9 3 -16 3 -16 -1 3 -21 -2 -32 -13 -26
-8 5 -9 2 -5 -10 4 -11 3 -15 -4 -11 -5 4 -22 -6 -36 -22 -15 -15 -31 -27 -37
-25 -5 2 -13 -2 -17 -9 -8 -13 -28 -20 -66 -22 -12 0 -19 -5 -17 -9 3 -4 -5
-8 -18 -9 -13 0 -44 -2 -70 -4 -31 -2 -48 1 -48 9 0 7 -3 7 -8 -2 -6 -9 -14
-6 -30 13 -12 14 -25 25 -29 25 -5 0 -13 16 -19 35 -8 24 -8 32 0 28 6 -4 5 1
-3 10 -11 14 -11 17 0 17 12 0 12 2 0 9 -9 6 -10 11 -2 15 6 4 9 12 6 17 -4 5
0 9 7 9 11 0 10 2 0 9 -11 7 -11 9 2 14 10 4 13 13 9 23 -4 12 -3 15 5 10 7
-4 12 -1 12 8 0 9 5 16 12 16 6 0 9 3 6 6 -8 7 34 50 45 46 5 -1 6 2 2 7 -3 6
3 16 14 22 10 7 17 18 14 24 -2 7 3 15 12 19 9 3 13 10 10 16 -3 5 1 10 10 10
9 0 13 5 10 10 -4 6 -2 16 3 23 16 19 20 115 5 110 -8 -3 -13 3 -13 17 0 11
-4 18 -10 15 -6 -3 -10 1 -10 10 0 9 -4 13 -10 10 -5 -3 -10 -1 -10 5 0 6 -5
8 -10 5 -5 -3 -10 -1 -10 5 0 6 -5 8 -10 5 -6 -4 -18 -1 -27 7 -9 7 -14 8 -10
2 4 -7 -10 -11 -41 -11 -52 -1 -78 -6 -88 -16 -4 -4 -15 -7 -24 -7 -10 0 -23
-7 -30 -15 -7 -8 -15 -13 -19 -11 -9 5 -31 -21 -24 -28 4 -3 0 -6 -7 -6 -13 0
-65 -50 -52 -50 4 0 0 -5 -8 -10 -8 -5 -15 -15 -15 -22 -1 -7 -6 -12 -12 -11
-7 2 -10 -6 -8 -17 2 -11 -4 -24 -13 -30 -10 -5 -12 -10 -4 -10 6 0 12 -5 12
-11 0 -6 -7 -8 -16 -5 -13 5 -14 3 -7 -6 6 -7 9 -30 7 -50 -2 -23 1 -38 7 -38
8 0 8 -4 0 -14 -9 -11 -9 -15 1 -19 10 -4 10 -6 -1 -6 -11 -1 -11 -4 0 -18 10
-11 10 -14 2 -9 -9 5 -13 -2 -13 -24 0 -18 -4 -29 -10 -25 -6 4 -7 -1 -3 -11
4 -12 3 -15 -5 -10 -8 5 -10 2 -6 -8 3 -9 1 -16 -6 -16 -6 0 -9 -4 -6 -9 3 -5
-1 -12 -10 -15 -10 -4 -14 -12 -10 -22 6 -15 4 -15 -11 -3 -9 8 -14 9 -10 3
10 -17 -50 -61 -75 -56 -5 1 -8 -3 -8 -9 0 -5 -4 -7 -10 -4 -5 3 -10 2 -10 -2
0 -13 -127 -8 -144 6 -8 7 -20 10 -26 6 -5 -3 -10 0 -10 8 0 8 -9 17 -20 20
-13 3 -20 14 -20 30 0 14 -4 27 -9 29 -5 2 -11 19 -12 38 -2 19 -8 38 -14 42
-6 5 -4 8 5 8 13 0 13 1 0 10 -10 6 -11 10 -2 10 6 0 12 5 12 11 0 5 -6 7 -12
3 -10 -6 -10 -5 -1 8 7 8 10 18 6 21 -3 4 -2 7 4 7 6 0 8 12 5 26 -3 16 1 30
9 35 12 7 11 9 -1 9 -12 1 -12 2 2 10 10 6 15 19 13 30 -2 11 0 18 6 15 8 -5
14 15 10 38 0 4 6 7 14 7 9 0 12 6 8 17 -5 12 -2 15 9 10 12 -4 14 -1 11 14
-3 10 0 19 6 19 6 0 11 5 11 11 0 7 10 20 22 30 11 11 18 19 15 19 -4 0 8 15
26 34 18 18 35 32 40 29 4 -2 7 -1 6 4 -3 20 2 34 10 28 6 -3 15 4 21 15 6 11
18 20 27 20 9 0 14 3 11 6 -8 8 33 50 57 58 25 8 73 78 56 84 -6 2 -11 8 -11
13 0 6 6 7 13 3 6 -4 5 1 -4 12 -9 10 -14 24 -12 31 2 7 -1 22 -8 35 -8 13
-12 26 -11 31 1 4 -2 7 -8 7 -5 0 -10 7 -10 15 0 8 -5 15 -11 15 -5 0 -8 4 -4
9 3 6 0 13 -7 18 -7 4 -19 20 -27 36 -8 15 -21 27 -28 27 -8 0 -11 5 -8 10 3
6 -4 10 -17 10 -18 0 -20 2 -8 10 13 9 8 14 -12 11 -4 0 -10 9 -13 21 -6 16
-9 18 -16 7 -7 -11 -9 -10 -9 4 0 10 -4 16 -9 13 -5 -4 -12 0 -15 6 -5 10 -7
10 -12 1 -3 -7 -12 -9 -20 -6 -8 3 -14 0 -14 -6 0 -6 -3 -10 -7 -10 -23 4 -43
-2 -38 -11 3 -5 1 -11 -4 -11 -6 -1 -16 -2 -21 -3 -6 0 -15 -8 -20 -16 -5 -8
-10 -11 -10 -7 0 5 -13 0 -29 -9 -17 -10 -28 -21 -25 -25 2 -4 -3 -6 -13 -5
-9 2 -25 -6 -35 -16 -10 -10 -25 -18 -34 -18 -8 0 -13 -4 -10 -9 3 -5 -8 -14
-24 -20 -17 -5 -33 -17 -36 -26 -3 -8 -13 -15 -20 -15 -8 0 -17 -7 -20 -15 -4
-8 -9 -13 -13 -11 -4 3 -15 -6 -25 -19 -10 -14 -22 -23 -26 -20 -4 2 -19 -11
-35 -30 -15 -19 -34 -35 -42 -35 -8 0 -11 -4 -8 -10 3 -5 0 -10 -7 -10 -10 0
-10 -2 0 -9 17 -11 17 -21 0 -32 -10 -7 -9 -9 4 -9 9 0 20 -5 24 -12 5 -7 3
-8 -7 -3 -8 5 -6 0 4 -12 10 -11 15 -27 11 -36 -4 -10 0 -19 9 -23 9 -3 19
-19 22 -35 4 -16 11 -29 16 -29 6 0 5 -8 -1 -20 -9 -16 -8 -22 5 -26 13 -5 13
-9 3 -22 -9 -11 -9 -13 -1 -9 6 4 14 3 18 -3 3 -5 1 -10 -5 -10 -6 0 -8 -11
-6 -25 3 -14 0 -25 -6 -25 -7 0 -7 -5 1 -14 9 -11 8 -15 -5 -20 -13 -5 -14 -9
-3 -22 10 -13 9 -16 -8 -20 -14 -4 -19 -13 -17 -30 1 -13 -1 -24 -4 -24 -4 0
-13 -9 -20 -21 -11 -17 -11 -20 0 -14 7 3 5 0 -4 -8 -10 -8 -15 -17 -11 -20 3
-4 1 -7 -5 -7 -7 0 -12 -6 -12 -13 0 -7 -9 -19 -19 -27 -11 -7 -18 -17 -16
-21 3 -4 -2 -10 -11 -13 -9 -3 -12 -11 -8 -18 4 -7 4 -10 0 -7 -4 4 -30 -15
-57 -42 -28 -27 -55 -46 -60 -43 -5 3 -9 2 -9 -3 0 -4 -14 -16 -31 -25 -18
-11 -27 -13 -24 -5 4 6 0 4 -8 -5 -16 -20 -32 -25 -21 -6 5 7 3 8 -5 4 -7 -5
-10 -15 -6 -23 4 -13 3 -14 -10 -3 -12 10 -15 10 -15 0 0 -10 -3 -10 -15 0 -8
7 -15 9 -15 4 0 -5 -13 -9 -30 -9 -19 0 -30 5 -30 14 0 9 -4 10 -12 3 -9 -7
-19 -3 -33 11 -11 11 -14 17 -8 13 9 -5 11 -2 7 8 -3 9 -10 13 -15 10 -5 -3
-6 2 -3 10 3 9 1 16 -6 16 -6 0 -8 5 -5 10 4 6 10 8 15 5 4 -3 6 4 3 15 -3 11
-10 17 -17 14 -6 -3 -4 0 4 8 9 7 16 21 17 31 1 34 3 38 15 31 7 -4 8 -3 4 4
-8 14 18 55 28 45 4 -4 4 1 0 11 -5 14 -4 17 4 12 7 -4 12 -1 12 9 0 10 5 13
12 9 8 -5 9 -2 5 10 -4 9 -3 15 1 13 4 -2 15 4 25 15 9 10 14 18 10 18 -5 0 0
7 10 14 10 8 19 23 20 35 1 12 5 21 9 21 4 0 8 5 8 11 0 5 -6 7 -12 3 -10 -6
-10 -5 -1 8 7 8 10 18 6 21 -3 4 -1 7 7 7 9 0 10 3 1 14 -9 11 -9 15 1 19 10
4 10 6 1 6 -7 1 -13 8 -13 16 0 9 -7 18 -16 22 -8 3 -13 12 -10 20 3 8 2 12
-2 9 -5 -3 -15 4 -22 15 -8 10 -22 19 -31 19 -10 0 -19 5 -21 12 -3 8 -33 12
-90 13 -48 0 -84 -3 -82 -6 2 -4 -12 -10 -31 -13 -19 -4 -35 -11 -35 -16 0 -6
-7 -10 -15 -10 -8 0 -15 -4 -15 -10 0 -5 -5 -10 -11 -10 -15 0 -69 -62 -63
-72 3 -4 -2 -8 -11 -8 -11 0 -15 -5 -11 -16 3 -8 2 -12 -4 -9 -9 6 -14 -8 -11
-27 0 -5 -4 -8 -9 -8 -6 0 -10 -9 -10 -20 0 -11 -4 -20 -10 -20 -6 0 -6 -9 0
-25 6 -16 6 -25 0 -25 -6 0 -6 -10 0 -26 6 -14 8 -30 4 -35 -3 -5 3 -9 13 -10
10 0 13 -3 6 -6 -9 -3 -7 -11 7 -25 11 -12 17 -25 14 -30 -3 -4 0 -8 6 -8 6 0
8 -4 5 -10 -3 -5 -1 -10 6 -10 8 0 8 -4 -1 -15 -7 -9 -8 -15 -2 -15 6 0 9 -8
7 -17 -2 -10 -4 -22 -4 -26 -1 -5 -5 -5 -11 -2 -6 3 -7 -1 -4 -9 4 -9 1 -16
-6 -16 -7 0 -10 -7 -6 -16 3 -8 2 -12 -4 -9 -6 3 -13 -1 -16 -9 -3 -9 -10 -13
-15 -10 -5 3 -9 0 -9 -6 0 -6 -4 -9 -9 -6 -5 4 -11 1 -13 -6 -3 -7 -18 -13
-34 -13 -18 0 -28 -6 -26 -14 1 -7 -1 -10 -6 -7 -5 3 -27 6 -50 7 -23 2 -42 6
-42 10 0 4 -9 6 -20 4 -11 -2 -26 3 -35 11 -8 8 -18 16 -22 17 -4 1 -7 5 -6 9
2 5 -5 8 -14 8 -9 0 -13 3 -10 6 4 4 -3 15 -15 25 -11 11 -18 19 -13 19 4 0 0
11 -9 25 -9 13 -16 33 -16 44 0 11 -5 23 -10 26 -7 4 -7 12 0 25 6 11 6 21 1
24 -13 9 -20 56 -8 63 6 4 7 1 2 -7 -5 -9 -4 -11 4 -6 6 4 8 13 4 19 -12 19
-12 37 -1 37 5 0 6 9 3 20 -4 11 0 33 8 48 7 16 13 38 12 50 -1 11 4 23 12 26
7 3 13 15 13 26 0 11 5 20 10 20 6 0 10 7 10 15 0 8 5 15 11 15 5 0 7 4 4 10
-3 5 5 21 19 34 14 13 26 27 26 31 0 11 49 55 61 55 6 0 8 4 5 9 -3 5 1 12 10
15 8 3 12 11 8 17 -4 8 -3 9 4 5 6 -4 25 8 42 25 16 18 30 29 30 26 0 -4 9 1
19 10 11 9 18 20 15 25 -3 5 -2 8 3 7 19 -5 41 13 36 28 -4 10 -2 14 4 10 6
-4 13 2 16 13 3 11 1 20 -4 20 -5 0 -8 3 -8 8 3 19 -2 33 -11 27 -5 -3 -10 1
-10 9 0 9 -7 16 -16 16 -8 0 -13 3 -11 8 3 4 -16 8 -41 10 -25 1 -49 7 -53 13
-4 7 -11 9 -17 5 -6 -3 -13 -2 -17 4 -4 6 -11 8 -16 5 -5 -4 -9 -1 -9 5 0 7
-7 9 -16 6 -9 -3 -12 -2 -9 5 4 6 -2 13 -14 16 -11 3 -18 9 -15 14 3 5 0 9 -6
9 -6 0 -8 5 -5 10 3 6 1 10 -4 10 -6 0 -11 9 -11 20 0 11 -4 20 -10 20 -5 0
-10 9 -10 21 0 11 -4 17 -10 14 -5 -3 -10 1 -10 9 0 9 -4 16 -9 16 -5 0 -11 9
-14 21 -3 12 -10 18 -16 14 -6 -3 -11 1 -11 9 0 9 -7 16 -15 16 -8 0 -15 4
-15 9 0 5 -7 12 -16 15 -10 4 -13 2 -9 -7 4 -6 0 -4 -9 7 -8 10 -19 15 -25 12
-5 -4 -12 -2 -16 4 -4 6 -11 8 -16 5 -5 -4 -9 0 -9 7 0 9 -3 9 -10 -2 -5 -8
-10 -10 -10 -3 0 6 -8 10 -17 8 -10 -1 -26 2 -37 7 -12 7 -16 7 -12 0 4 -6 -2
-8 -14 -5 -11 3 -18 9 -15 13 3 5 -6 7 -20 5 -14 -1 -25 2 -25 6 0 5 -9 9 -20
9 -11 0 -20 5 -20 12 0 6 -3 8 -6 5 -4 -4 -15 3 -25 15 -11 11 -19 16 -19 9 0
-9 -4 -8 -14 1 -8 7 -12 16 -9 21 2 4 1 7 -4 6 -20 -3 -34 2 -28 11 3 6 -1 10
-9 10 -9 0 -16 5 -16 10 0 6 -5 10 -11 10 -14 0 -39 26 -39 40 0 6 -3 9 -7 7
-10 -6 -34 19 -26 27 4 3 -1 6 -11 6 -9 0 -14 4 -11 10 3 6 -1 7 -9 4 -9 -3
-16 -2 -16 2 0 12 -99 12 -103 1z"/>
<path d="M4909 5093 c-13 -16 -12 -17 4 -4 9 7 17 15 17 17 0 8 -8 3 -21 -13z"/>
<path d="M695 3400 c-4 -6 -11 -8 -16 -5 -5 4 -9 1 -9 -5 0 -6 -4 -9 -9 -5
-11 6 -33 -29 -24 -38 3 -4 -2 -9 -11 -13 -9 -3 -13 -10 -10 -15 2 -5 -1 -19
-8 -31 -7 -13 -12 -26 -13 -30 0 -3 -3 -10 -7 -14 -13 -12 -9 -26 5 -18 9 6 9
5 0 -7 -10 -13 -4 -15 50 -14 34 0 72 -3 83 -6 12 -4 25 -5 28 -2 10 10 86 9
86 -2 0 -7 3 -7 8 0 9 14 204 14 214 0 5 -6 8 -6 8 1 0 9 108 12 145 4 6 -1
12 -2 15 -1 20 8 90 5 90 -4 0 -7 3 -7 8 0 8 12 142 14 142 2 0 -4 5 -5 12 -1
19 12 158 11 158 -1 0 -7 3 -7 8 0 8 12 142 14 142 2 0 -4 6 -5 12 -1 17 11
268 11 268 1 0 -4 5 -5 12 -1 16 10 128 12 134 2 3 -5 11 -5 17 -1 16 10 66
10 93 1 12 -4 25 -4 28 -1 10 10 86 9 86 -2 0 -7 3 -7 8 0 9 14 204 14 214 0
5 -6 8 -6 8 1 0 9 108 12 145 4 6 -1 12 -2 15 -1 18 7 200 5 200 -2 0 -4 5 -5
12 -1 16 10 128 12 134 2 3 -5 10 -6 15 -3 19 12 49 13 49 2 0 -8 3 -8 8 -2 8
12 142 14 142 2 0 -4 5 -5 12 -1 19 12 158 11 158 -1 0 -7 3 -7 8 0 8 12 142
14 142 2 0 -4 6 -5 13 0 16 10 175 11 203 2 12 -4 25 -5 28 -2 10 10 86 9 86
-2 0 -7 3 -7 8 0 9 14 204 14 214 0 5 -6 8 -6 8 1 0 11 130 12 148 0 6 -3 13
-3 15 1 5 7 114 9 142 3 6 -1 12 -2 15 -1 20 8 90 5 90 -4 0 -7 3 -7 8 0 9 14
204 14 214 0 5 -6 8 -6 8 1 0 11 130 12 148 0 6 -3 13 -3 15 1 5 7 114 9 142
3 6 -1 12 -2 15 -1 20 8 90 5 90 -4 0 -7 3 -7 8 0 9 14 204 14 214 0 5 -6 8
-6 8 1 0 11 130 12 148 0 6 -3 13 -3 15 1 5 7 114 9 142 3 6 -1 12 -2 15 -1
20 8 90 5 90 -4 0 -7 3 -7 8 0 9 14 204 14 214 0 5 -6 8 -6 8 1 0 9 108 12
145 4 6 -1 12 -2 15 -1 20 8 90 5 90 -4 0 -7 3 -7 8 0 8 12 142 14 142 2 0 -4
5 -5 12 -1 19 12 158 11 158 -1 0 -7 3 -7 8 0 8 12 142 14 142 2 0 -4 6 -5 12
-1 17 11 268 11 268 1 0 -4 5 -5 12 -1 16 10 128 12 134 2 3 -5 11 -5 17 -1
16 10 66 10 93 1 12 -4 25 -4 28 -1 10 10 86 9 86 -2 0 -7 3 -7 8 0 9 14 204
14 214 0 5 -6 8 -6 8 1 0 9 108 12 145 4 6 -1 12 -1 15 0 3 1 52 2 110 3 86 2
105 5 105 17 0 8 6 19 13 23 6 4 12 16 12 26 0 10 3 21 8 25 7 7 8 11 11 37 0
5 5 8 10 5 5 -3 8 8 7 24 0 17 -4 30 -9 30 -4 0 -5 6 -1 13 6 9 4 9 -8 -1 -12
-9 -18 -10 -23 -2 -5 8 -10 8 -20 0 -10 -8 -15 -8 -20 0 -5 8 -11 8 -19 1 -9
-7 -17 -7 -26 2 -10 9 -11 9 -6 0 9 -16 -20 -18 -29 -3 -5 8 -11 7 -21 -1 -11
-9 -14 -8 -14 2 0 9 -3 10 -8 4 -11 -16 -45 -19 -37 -3 6 10 5 11 -6 1 -7 -7
-17 -13 -22 -13 -4 0 -5 6 -1 13 6 10 4 10 -7 0 -17 -17 -53 -17 -43 0 6 9 4
9 -7 0 -17 -17 -32 -17 -23 0 6 9 4 9 -7 0 -7 -7 -17 -13 -22 -13 -4 0 -5 6
-1 13 5 7 0 6 -11 -3 -14 -11 -19 -12 -22 -2 -3 6 -9 12 -14 12 -6 0 -8 -4 -4
-9 6 -11 -34 -9 -52 2 -6 4 -15 3 -18 -3 -5 -8 -12 -7 -23 2 -12 10 -14 10 -8
1 4 -7 3 -13 -3 -13 -5 0 -12 6 -14 13 -4 9 -6 8 -6 -2 -1 -11 -4 -11 -18 0
-11 10 -14 10 -9 2 4 -8 2 -13 -6 -13 -8 0 -20 6 -27 13 -11 10 -13 10 -7 0 5
-8 1 -13 -9 -13 -10 0 -13 5 -9 12 5 7 3 8 -7 2 -24 -14 -51 -16 -43 -2 6 10
4 11 -7 1 -17 -17 -32 -17 -23 0 6 9 4 9 -7 0 -7 -7 -17 -13 -22 -13 -4 0 -5
6 -1 13 6 9 4 9 -7 0 -17 -17 -53 -17 -43 0 6 9 4 9 -7 0 -16 -16 -33 -17 -24
-2 4 6 -2 5 -13 -2 -16 -10 -23 -10 -35 0 -11 8 -17 9 -22 1 -5 -8 -11 -7 -23
2 -12 10 -14 10 -8 1 4 -8 1 -13 -9 -13 -9 0 -13 5 -10 11 4 6 -2 5 -13 -2
-16 -10 -23 -10 -35 0 -11 8 -17 9 -22 1 -5 -8 -10 -8 -20 0 -10 8 -15 8 -20
0 -5 -8 -11 -7 -23 2 -12 10 -14 10 -8 1 4 -8 2 -13 -8 -13 -8 0 -18 5 -21 10
-5 8 -11 7 -21 -1 -11 -9 -14 -8 -14 2 0 9 -3 10 -8 4 -11 -16 -45 -19 -37 -3
6 10 5 11 -6 1 -17 -17 -32 -17 -23 0 6 10 4 10 -7 0 -17 -17 -53 -17 -43 0 6
9 4 9 -7 0 -17 -17 -32 -17 -23 0 6 9 4 9 -7 0 -7 -7 -17 -13 -22 -13 -4 0 -5
6 -1 13 5 7 0 6 -11 -3 -14 -11 -19 -12 -22 -2 -3 6 -9 12 -14 12 -6 0 -8 -4
-4 -9 6 -11 -34 -9 -52 2 -6 4 -15 3 -18 -3 -5 -8 -12 -7 -23 2 -12 10 -14 10
-8 1 4 -7 3 -13 -3 -13 -5 0 -12 6 -14 13 -4 9 -6 8 -6 -2 -1 -11 -4 -11 -18
0 -11 10 -14 10 -9 2 10 -17 -16 -17 -33 0 -11 10 -13 10 -7 0 5 -8 1 -13 -9
-13 -10 0 -13 5 -9 12 5 7 3 8 -7 2 -24 -14 -51 -16 -43 -2 6 10 4 11 -7 1 -7
-7 -17 -13 -22 -13 -4 0 -5 6 -1 13 6 9 4 9 -7 0 -17 -17 -32 -17 -23 0 6 10
4 10 -7 0 -7 -7 -21 -13 -32 -13 -12 0 -16 4 -11 13 6 10 4 10 -7 0 -17 -17
-32 -17 -23 0 6 9 4 9 -7 0 -7 -7 -17 -13 -22 -13 -4 0 -5 6 -1 13 5 7 0 6
-11 -3 -14 -11 -19 -12 -22 -2 -3 6 -9 12 -14 12 -6 0 -8 -4 -4 -9 6 -11 -34
-9 -52 2 -6 4 -15 3 -18 -3 -5 -8 -12 -7 -23 2 -12 10 -14 10 -8 1 4 -7 3 -13
-3 -13 -5 0 -12 6 -14 13 -4 9 -6 8 -6 -2 -1 -11 -4 -11 -18 0 -11 10 -14 10
-9 2 4 -8 2 -13 -6 -13 -8 0 -20 6 -27 13 -11 10 -13 10 -7 0 5 -8 1 -13 -9
-13 -10 0 -13 5 -9 12 5 7 3 8 -7 2 -22 -13 -51 -16 -43 -3 4 7 -2 7 -17 -1
-17 -10 -24 -10 -27 -1 -2 6 -8 11 -13 11 -6 0 -8 -4 -4 -9 6 -11 -34 -9 -52
2 -6 4 -15 3 -18 -3 -5 -8 -12 -7 -23 2 -12 10 -14 10 -8 1 4 -7 3 -13 -3 -13
-5 0 -12 6 -14 13 -4 9 -6 8 -6 -2 -1 -11 -4 -11 -18 0 -11 10 -14 10 -9 2 10
-17 -16 -17 -33 0 -11 10 -13 10 -7 0 5 -8 1 -13 -9 -13 -10 0 -13 5 -9 12 5
7 3 8 -7 2 -22 -13 -51 -16 -43 -3 4 7 -2 7 -17 -1 -17 -10 -24 -10 -27 -1 -2
6 -8 11 -13 11 -6 0 -8 -4 -4 -9 6 -11 -34 -9 -52 2 -6 4 -15 3 -18 -3 -5 -8
-12 -7 -23 2 -12 10 -14 10 -8 1 4 -7 3 -13 -3 -13 -5 0 -12 6 -14 13 -4 9 -6
8 -6 -2 -1 -11 -4 -11 -18 0 -11 10 -14 10 -9 2 10 -17 -16 -17 -33 0 -11 10
-13 10 -7 0 5 -8 1 -13 -9 -13 -10 0 -13 5 -9 12 5 7 3 8 -7 2 -22 -13 -51
-16 -43 -3 4 7 -2 7 -17 -1 -17 -10 -24 -10 -27 -1 -2 6 -8 11 -13 11 -6 0 -8
-4 -4 -9 6 -11 -34 -9 -52 2 -6 4 -15 3 -18 -3 -5 -8 -12 -7 -23 2 -12 10 -14
10 -8 1 4 -7 3 -13 -3 -13 -5 0 -12 6 -14 13 -4 9 -6 8 -6 -2 -1 -11 -4 -11
-18 0 -11 10 -14 10 -9 2 10 -17 -16 -17 -33 0 -11 10 -13 10 -7 0 5 -8 1 -13
-9 -13 -10 0 -13 5 -9 12 5 7 3 8 -7 2 -22 -13 -51 -16 -43 -3 4 7 -2 7 -17
-1 -17 -10 -24 -10 -27 -1 -2 6 -8 11 -13 11 -6 0 -8 -4 -4 -9 6 -11 -34 -9
-52 2 -6 4 -15 3 -18 -3 -5 -8 -12 -7 -23 2 -12 10 -14 10 -8 1 4 -7 3 -13 -3
-13 -5 0 -12 6 -14 13 -4 9 -6 8 -6 -2 -1 -11 -4 -11 -18 0 -11 10 -14 10 -9
2 4 -8 2 -13 -6 -13 -8 0 -20 6 -27 13 -11 10 -13 10 -7 0 5 -8 1 -13 -9 -13
-10 0 -13 5 -9 12 5 7 3 8 -7 2 -22 -13 -51 -16 -43 -3 4 7 -2 7 -17 -1 -17
-10 -24 -10 -27 -1 -2 6 -8 11 -13 11 -6 0 -8 -4 -4 -9 6 -11 -34 -9 -52 2 -6
4 -15 3 -18 -3 -5 -8 -12 -7 -23 2 -12 10 -14 10 -8 1 4 -7 3 -13 -3 -13 -5 0
-12 6 -14 13 -4 9 -6 8 -6 -2 -1 -11 -4 -11 -18 0 -11 10 -14 10 -9 2 10 -17
-16 -17 -33 0 -11 10 -13 10 -7 0 5 -8 1 -13 -9 -13 -10 0 -13 5 -9 12 5 7 3
8 -7 2 -22 -13 -51 -16 -43 -3 4 7 -2 7 -17 -1 -17 -10 -24 -10 -27 -1 -2 6
-8 11 -13 11 -6 0 -8 -4 -4 -9 6 -11 -34 -9 -52 2 -6 4 -15 3 -18 -3 -5 -8
-12 -7 -23 2 -12 10 -14 10 -8 1 4 -7 3 -13 -3 -13 -5 0 -12 6 -14 13 -4 9 -6
8 -6 -2 -1 -11 -4 -11 -18 0 -11 10 -14 10 -9 2 4 -8 2 -13 -6 -13 -8 0 -20 6
-27 13 -11 10 -13 10 -7 0 5 -8 1 -13 -9 -13 -10 0 -13 5 -9 12 5 7 3 8 -7 2
-22 -13 -51 -16 -43 -3 4 7 -2 7 -17 -1 -17 -10 -24 -10 -27 -1 -2 6 -8 11
-13 11 -6 0 -8 -4 -4 -9 6 -11 -34 -9 -52 2 -6 4 -15 3 -18 -3 -5 -8 -12 -7
-23 2 -12 10 -14 10 -8 1 4 -7 3 -13 -3 -13 -5 0 -12 6 -14 13 -4 9 -6 8 -6
-2 -1 -11 -4 -11 -18 0 -11 10 -14 10 -9 2 4 -8 2 -13 -6 -13 -8 0 -20 6 -27
13 -11 10 -13 10 -7 0 5 -8 1 -13 -9 -13 -10 0 -13 5 -9 12 5 7 3 8 -7 2 -24
-14 -51 -16 -43 -2 6 10 4 11 -7 1 -7 -7 -17 -13 -22 -13 -4 0 -5 6 -1 13 6
10 4 10 -7 0 -7 -7 -17 -13 -22 -13 -4 0 -5 6 -1 13 6 10 4 10 -7 0 -7 -7 -21
-13 -32 -13 -12 0 -16 4 -11 13 6 10 4 10 -7 0 -7 -7 -17 -13 -22 -13 -4 0 -5
6 -1 13 6 10 4 10 -7 0 -7 -7 -17 -13 -22 -13 -4 0 -5 6 -1 13 5 7 0 6 -11 -3
-14 -11 -19 -12 -22 -2 -3 6 -9 12 -14 12 -6 0 -8 -4 -4 -9 6 -11 -34 -9 -52
2 -6 4 -15 3 -18 -3 -5 -8 -12 -7 -23 2 -12 10 -14 10 -8 1 4 -7 3 -13 -3 -13
-5 0 -12 6 -14 13 -4 9 -6 8 -6 -2 -1 -11 -4 -11 -18 0 -11 10 -14 10 -9 2 4
-8 2 -13 -6 -13 -8 0 -20 6 -27 13 -11 10 -13 10 -7 0 5 -8 1 -13 -9 -13 -10
0 -13 5 -9 12 5 7 3 8 -7 2 -24 -14 -51 -16 -43 -2 6 10 4 11 -7 1 -7 -7 -17
-13 -22 -13 -4 0 -5 6 -1 13 6 10 4 10 -7 0 -17 -17 -32 -17 -23 0 6 10 4 10
-7 0 -7 -7 -21 -13 -32 -13 -12 0 -16 4 -11 13 6 10 4 10 -7 0 -16 -16 -33
-17 -24 -2 4 6 -2 5 -13 -2 -16 -10 -23 -10 -35 0 -11 8 -17 9 -22 1 -5 -8
-11 -7 -23 2 -12 10 -14 10 -8 1 4 -8 1 -13 -9 -13 -9 0 -13 5 -10 11 4 6 -2
5 -13 -2 -16 -10 -23 -10 -35 0 -11 8 -17 9 -22 1 -5 -8 -10 -8 -20 0 -10 8
-15 8 -20 0 -5 -8 -11 -7 -23 2 -12 10 -14 10 -8 1 4 -8 2 -13 -8 -13 -8 0
-18 5 -21 10 -5 8 -11 7 -21 -1 -11 -9 -14 -8 -14 2 0 9 -3 10 -8 4 -11 -16
-45 -19 -37 -3 6 10 5 11 -6 1 -7 -7 -17 -13 -22 -13 -4 0 -5 6 -1 13 6 10 4
10 -7 0 -7 -7 -21 -13 -32 -13 -12 0 -16 4 -11 13 6 10 4 10 -7 0 -7 -7 -17
-13 -22 -13 -4 0 -5 6 -1 13 6 10 4 10 -7 0 -7 -7 -17 -13 -22 -13 -4 0 -5 6
-1 13 5 7 0 6 -11 -3 -14 -11 -19 -12 -22 -2 -3 6 -9 12 -14 12 -6 0 -8 -4 -4
-9 6 -11 -34 -9 -52 2 -6 4 -15 3 -18 -3 -5 -8 -12 -7 -23 2 -12 10 -14 10 -8
1 4 -7 3 -13 -3 -13 -5 0 -12 6 -14 13 -4 9 -6 8 -6 -2 -1 -11 -4 -11 -18 0
-11 10 -14 10 -9 2 4 -8 2 -13 -6 -13 -8 0 -20 6 -27 13 -11 10 -13 10 -7 0 5
-8 1 -13 -9 -13 -10 0 -13 5 -9 12 5 7 3 8 -7 2 -24 -14 -51 -16 -43 -2 6 10
4 11 -7 1 -7 -7 -17 -13 -22 -13 -4 0 -5 6 -1 13 6 10 4 10 -7 0 -7 -7 -17
-13 -22 -13 -4 0 -5 6 -1 13 6 10 4 10 -7 0 -7 -7 -21 -13 -32 -13 -12 0 -16
4 -11 13 6 10 4 10 -7 0 -16 -16 -33 -17 -24 -2 4 6 -2 5 -13 -2 -16 -10 -23
-10 -35 0 -11 8 -17 9 -22 1 -5 -8 -11 -7 -23 2 -12 10 -14 10 -8 1 4 -8 1
-13 -9 -13 -9 0 -13 5 -10 11 4 6 -2 5 -13 -2 -16 -10 -23 -10 -35 0 -11 8
-17 9 -22 1 -5 -8 -10 -8 -20 0 -10 8 -15 8 -20 0 -5 -8 -11 -7 -23 2 -12 10
-14 10 -8 1 4 -8 2 -13 -8 -13 -8 0 -18 5 -21 10 -5 8 -11 7 -21 -1 -11 -9
-14 -8 -14 2 0 9 -3 10 -8 4 -11 -16 -45 -19 -37 -3 6 10 5 11 -6 1 -7 -7 -17
-13 -22 -13 -4 0 -5 6 -1 13 6 10 4 10 -7 0 -7 -7 -21 -13 -32 -13 -12 0 -16
4 -11 13 6 10 4 10 -7 0 -7 -7 -17 -13 -22 -13 -4 0 -5 6 -1 13 6 10 4 10 -7
0 -7 -7 -17 -13 -22 -13 -4 0 -5 6 -1 13 5 7 0 6 -11 -3 -14 -11 -19 -12 -22
-2 -3 6 -9 12 -14 12 -6 0 -8 -4 -4 -9 6 -11 -34 -9 -52 2 -6 4 -15 3 -18 -3
-5 -8 -12 -7 -23 2 -12 10 -14 10 -8 1 4 -7 3 -13 -3 -13 -5 0 -12 6 -14 13
-4 9 -6 8 -6 -2 -1 -11 -4 -11 -18 0 -11 10 -14 10 -9 2 4 -8 2 -13 -6 -13 -8
0 -20 6 -27 13 -11 10 -13 10 -7 0 5 -8 1 -13 -9 -13 -10 0 -13 5 -9 12 5 7 3
8 -7 2 -24 -14 -51 -16 -43 -2 6 10 4 11 -7 1 -7 -7 -17 -13 -22 -13 -4 0 -5
6 -1 13 6 10 4 10 -7 0 -7 -7 -17 -13 -22 -13 -4 0 -5 6 -1 13 6 10 4 10 -7 0
-7 -7 -21 -13 -32 -13 -12 0 -16 4 -11 13 6 10 4 10 -7 0 -7 -7 -17 -13 -22
-13 -4 0 -5 6 -1 13 6 10 4 10 -7 0 -7 -7 -17 -13 -22 -13 -4 0 -5 6 -1 13 5
7 0 6 -11 -3 -14 -11 -19 -12 -22 -2 -3 6 -9 12 -14 12 -6 0 -8 -4 -4 -9 6
-11 -34 -9 -52 2 -6 4 -15 3 -18 -3 -5 -8 -12 -7 -23 2 -12 10 -14 10 -8 1 4
-7 3 -13 -3 -13 -5 0 -12 6 -14 13 -4 9 -6 8 -6 -2 -1 -11 -4 -11 -18 0 -11
10 -14 10 -9 2 4 -8 2 -13 -6 -13 -8 0 -20 6 -27 13 -11 10 -13 10 -7 0 5 -8
1 -13 -9 -13 -10 0 -13 5 -9 12 5 7 3 8 -7 2 -22 -13 -51 -16 -43 -3 4 7 -2 7
-17 -1 -17 -10 -24 -10 -27 -1 -2 6 -8 11 -13 11 -6 0 -8 -4 -4 -9 6 -11 -34
-9 -52 2 -6 4 -15 3 -18 -3 -5 -8 -12 -7 -23 2 -12 10 -14 10 -8 1 4 -8 1 -13
-9 -13 -10 0 -13 5 -9 13 6 9 4 9 -7 1 -16 -12 -29 -12 -46 -1 -6 4 -14 3 -18
-3 -3 -5 -11 -10 -16 -10 -6 0 -7 5 -4 10 3 6 4 10 1 10 -3 0 -8 -5 -11 -10z"/>
<path d="M576 3045 c-12 -9 -24 -11 -35 -5 -13 6 -20 3 -29 -11 -7 -11 -17
-17 -22 -14 -6 3 -7 -1 -4 -10 4 -8 1 -22 -6 -30 -6 -8 -9 -19 -5 -25 3 -5 1
-10 -5 -10 -7 0 -10 -6 -7 -14 3 -8 -1 -17 -8 -20 -8 -3 -12 -14 -10 -26 2
-11 0 -18 -6 -15 -5 4 -9 -5 -9 -20 0 -14 -6 -28 -14 -31 -8 -3 -12 -12 -10
-19 3 -7 0 -16 -5 -20 -6 -3 -9 -11 -6 -16 4 -5 1 -9 -5 -9 -6 0 -9 -4 -5 -9
3 -5 -2 -16 -10 -25 -10 -10 -12 -17 -5 -21 8 -5 7 -11 -1 -21 -6 -7 -15 -12
-19 -9 -4 2 -6 -7 -4 -21 1 -15 -4 -28 -12 -31 -8 -3 -11 -9 -8 -15 3 -5 -2
-19 -13 -30 -10 -12 -12 -18 -5 -14 6 4 12 2 12 -3 0 -6 -4 -11 -10 -11 -5 0
-10 -9 -10 -21 0 -13 -4 -18 -12 -13 -7 4 -8 3 -4 -5 9 -15 -3 -53 -15 -46 -5
3 -6 -2 -2 -11 5 -13 3 -15 -7 -9 -9 5 -11 4 -6 -4 4 -6 2 -19 -6 -28 -11 -14
-11 -16 2 -8 13 8 13 7 1 -8 -12 -15 -11 -17 5 -18 174 -4 7567 1 7572 6 4 4
7 12 7 18 1 7 7 11 13 9 10 -2 10 3 3 17 -8 14 -7 20 4 25 8 3 15 14 15 24 0
10 5 23 11 29 7 7 12 22 13 35 1 13 7 22 12 21 7 -1 9 8 6 22 -2 14 0 25 6 25
5 0 12 14 16 31 4 21 10 28 18 23 9 -6 9 -3 -1 9 -9 12 -10 17 -2 17 7 0 9 4
6 10 -3 5 -1 10 5 10 6 0 8 5 5 10 -3 6 -2 10 4 10 5 0 8 9 6 20 -2 11 0 18 6
15 5 -4 10 1 10 9 3 35 5 41 15 39 7 -1 9 8 6 22 -2 15 0 25 7 25 7 0 9 4 6
10 -3 5 -1 10 5 10 6 0 9 4 5 9 -3 5 -1 12 5 16 6 4 8 11 5 16 -4 5 -2 9 2 9
5 0 10 10 10 22 1 13 7 24 13 26 5 2 8 8 4 13 -3 5 0 9 7 9 7 0 9 3 6 7 -4 3
-2 12 5 20 9 11 8 13 -2 11 -8 -2 -14 2 -15 9 0 6 -4 15 -9 20 -5 4 -6 3 -3
-3 9 -15 -20 -27 -29 -12 -5 7 -2 8 6 3 8 -5 11 -4 7 3 -4 5 -16 8 -27 5 -11
-3 -18 -8 -15 -12 5 -10 -27 -7 -43 3 -6 4 -12 3 -12 -2 0 -15 -33 -9 -48 8
-7 8 -12 11 -11 5 3 -22 -2 -27 -16 -15 -12 10 -15 10 -15 -1 0 -9 -3 -10 -8
-4 -9 13 -32 18 -32 7 0 -10 -30 -9 -48 2 -6 4 -12 5 -12 1 0 -3 -8 -1 -18 4
-11 6 -24 6 -32 1 -8 -5 -19 -5 -26 1 -7 6 -16 4 -24 -6 -12 -14 -15 -14 -31
1 -13 12 -19 13 -19 4 0 -10 -4 -9 -17 1 -9 8 -14 9 -10 3 4 -7 0 -14 -8 -18
-8 -3 -17 -1 -20 4 -4 6 -13 10 -21 10 -8 0 -12 -4 -9 -10 3 -6 -1 -7 -9 -4
-9 3 -13 10 -10 15 10 16 -8 9 -23 -8 -14 -17 -14 -17 -9 1 5 15 4 17 -8 7
-11 -9 -15 -9 -19 1 -4 10 -6 10 -6 -1 -1 -11 -4 -11 -18 0 -15 12 -16 12 -10
-3 4 -12 2 -15 -8 -11 -8 3 -12 10 -9 17 3 6 -2 2 -10 -8 -16 -20 -16 -20 -17
0 0 10 -3 13 -6 6 -2 -6 -10 -9 -16 -5 -6 3 -23 7 -37 7 -19 1 -26 -3 -22 -13
4 -10 0 -10 -19 2 -16 11 -29 13 -39 7 -8 -5 -21 -5 -30 0 -9 5 -22 5 -30 0
-8 -5 -22 -4 -33 2 -14 7 -17 7 -13 -1 8 -12 -6 -15 -18 -4 -9 10 -76 10 -76
1 0 -5 5 -8 12 -8 6 0 9 -2 6 -5 -10 -10 -38 7 -31 19 3 6 1 6 -8 -1 -15 -15
-33 -18 -25 -5 6 10 -24 9 -41 -1 -6 -4 -14 -1 -16 5 -3 7 -6 4 -6 -6 -1 -19
-2 -19 -14 -2 -12 17 -14 17 -20 3 -4 -10 -13 -14 -22 -11 -8 3 -12 11 -8 18
3 6 1 6 -8 -1 -15 -15 -33 -17 -25 -4 3 4 -9 6 -27 4 -44 -7 -50 -6 -69 2 -11
4 -18 3 -18 -5 0 -6 5 -8 12 -4 7 4 8 3 4 -4 -9 -15 -38 -3 -29 12 3 6 1 6 -8
-1 -15 -15 -33 -18 -25 -5 6 10 -24 9 -41 -1 -6 -4 -14 -1 -16 5 -3 7 -6 4 -6
-6 -1 -19 -2 -19 -14 -2 -12 17 -14 17 -20 3 -4 -10 -13 -14 -22 -11 -8 3 -12
11 -8 18 3 6 1 6 -8 -1 -15 -15 -33 -17 -25 -4 6 8 -53 5 -62 -4 -3 -2 -14 0
-25 6 -14 8 -18 8 -13 0 4 -6 0 -11 -9 -11 -9 0 -13 5 -10 10 10 17 -7 11 -22
-7 -14 -17 -14 -17 -9 1 5 15 4 17 -8 7 -11 -9 -15 -9 -19 1 -4 10 -6 10 -6
-1 -1 -11 -4 -11 -18 0 -15 12 -16 12 -10 -3 4 -12 2 -15 -8 -11 -8 3 -12 10
-9 17 3 6 -2 2 -10 -8 -16 -20 -16 -20 -17 0 0 10 -3 13 -6 6 -2 -6 -10 -9
-16 -5 -6 3 -23 7 -37 7 -19 1 -26 -3 -22 -13 4 -10 0 -10 -19 2 -16 11 -29
13 -39 7 -9 -5 -19 -5 -26 1 -7 6 -16 4 -24 -6 -12 -14 -15 -14 -31 1 -13 12
-19 13 -19 4 0 -10 -4 -9 -17 1 -9 8 -14 9 -10 3 4 -7 0 -14 -8 -18 -8 -3 -17
-1 -20 4 -4 6 -13 10 -21 10 -8 0 -12 -4 -9 -10 3 -6 -1 -7 -9 -4 -9 3 -13 10
-10 15 10 16 -8 9 -23 -8 -14 -17 -14 -17 -9 1 5 15 4 17 -8 7 -11 -9 -15 -9
-19 1 -4 10 -6 10 -6 -1 -1 -11 -4 -11 -18 0 -15 12 -16 12 -10 -3 4 -12 2
-15 -8 -11 -8 3 -12 10 -9 17 3 6 -2 2 -10 -8 -16 -20 -16 -20 -17 0 0 10 -3
13 -6 7 -2 -7 -9 -13 -14 -13 -6 0 -7 5 -4 10 10 17 -7 11 -22 -7 -14 -17 -14
-17 -9 1 5 15 4 17 -8 7 -11 -9 -15 -9 -19 1 -4 10 -6 10 -6 -1 -1 -11 -4 -11
-18 0 -15 12 -16 12 -10 -3 4 -12 2 -15 -8 -11 -8 3 -12 10 -9 17 3 6 -2 2
-10 -8 -16 -20 -16 -20 -17 0 0 10 -3 13 -6 6 -2 -6 -10 -9 -16 -5 -6 3 -23 7
-37 7 -19 1 -26 -3 -22 -13 4 -10 0 -10 -19 2 -16 11 -29 13 -39 7 -9 -5 -19
-5 -26 1 -7 6 -16 4 -24 -6 -12 -14 -15 -14 -31 1 -13 12 -19 13 -19 4 0 -10
-4 -9 -17 1 -9 8 -14 9 -10 3 4 -7 0 -14 -8 -18 -8 -3 -17 -1 -20 4 -4 6 -13
10 -21 10 -8 0 -12 -4 -9 -10 3 -6 -1 -7 -9 -4 -9 3 -13 10 -10 15 10 16 -8 9
-23 -8 -14 -17 -14 -17 -9 1 5 15 4 17 -8 7 -11 -9 -15 -9 -19 1 -4 10 -6 10
-6 -1 -1 -11 -4 -11 -18 0 -15 12 -16 12 -10 -3 4 -12 2 -15 -8 -11 -8 3 -12
10 -9 17 3 6 -2 2 -10 -8 -16 -20 -16 -20 -17 0 0 10 -3 13 -6 7 -2 -7 -9 -13
-14 -13 -6 0 -7 5 -4 10 10 17 -7 11 -22 -7 -14 -17 -14 -17 -9 1 5 15 4 17
-8 7 -11 -9 -15 -9 -19 1 -4 10 -6 10 -6 -1 -1 -11 -4 -11 -18 0 -15 12 -16
12 -10 -3 4 -12 2 -15 -8 -11 -8 3 -12 10 -9 17 3 6 -2 2 -10 -8 -16 -20 -16
-20 -17 0 0 10 -3 13 -6 6 -2 -6 -10 -9 -16 -5 -6 3 -23 7 -37 7 -19 1 -26 -3
-22 -13 4 -10 0 -10 -19 2 -16 11 -29 13 -39 7 -9 -5 -19 -5 -26 1 -7 6 -16 4
-24 -6 -12 -14 -15 -14 -31 1 -13 12 -19 13 -19 4 0 -10 -4 -9 -17 1 -9 8 -14
9 -10 3 4 -7 0 -14 -8 -18 -8 -3 -17 -1 -20 4 -4 6 -13 10 -21 10 -8 0 -12 -4
-9 -10 3 -6 -1 -7 -9 -4 -9 3 -13 10 -10 15 10 16 -8 9 -23 -8 -14 -17 -14
-17 -9 1 5 15 4 17 -8 7 -11 -9 -15 -9 -19 1 -4 10 -6 10 -6 -1 -1 -11 -4 -11
-18 0 -15 12 -16 12 -10 -3 4 -12 2 -15 -8 -11 -8 3 -12 10 -9 17 3 6 -2 2
-10 -8 -16 -20 -16 -20 -17 0 0 10 -3 13 -6 7 -2 -7 -9 -13 -14 -13 -6 0 -7 5
-4 10 10 17 -7 11 -22 -7 -14 -17 -14 -17 -9 1 5 15 4 17 -8 7 -11 -9 -15 -9
-19 1 -4 10 -6 10 -6 -1 -1 -11 -4 -11 -18 0 -15 12 -16 12 -10 -3 4 -12 2
-15 -8 -11 -8 3 -12 10 -9 17 3 6 -2 2 -10 -8 -16 -20 -16 -20 -17 0 0 10 -3
13 -6 6 -2 -6 -10 -9 -16 -5 -6 3 -23 7 -37 7 -19 1 -26 -3 -22 -13 4 -10 0
-10 -19 2 -16 11 -29 13 -39 7 -9 -5 -19 -5 -26 1 -7 6 -16 4 -24 -6 -12 -14
-15 -14 -31 1 -13 12 -19 13 -19 4 0 -10 -4 -9 -17 1 -9 8 -14 9 -10 3 4 -7 0
-14 -8 -18 -8 -3 -17 -1 -20 4 -4 6 -13 10 -21 10 -8 0 -12 -4 -9 -10 3 -6 -1
-7 -9 -4 -9 3 -13 10 -10 15 10 16 -8 9 -23 -8 -14 -17 -14 -17 -9 1 5 15 4
17 -8 7 -11 -9 -15 -9 -19 1 -4 10 -6 10 -6 -1 -1 -11 -4 -11 -18 0 -15 12
-16 12 -10 -3 4 -12 2 -15 -8 -11 -8 3 -12 10 -9 17 3 6 -2 2 -10 -8 -14 -17
-16 -18 -16 -3 0 9 -5 17 -11 17 -6 0 -9 -7 -6 -14 4 -10 1 -13 -8 -9 -8 3
-12 10 -8 17 3 6 1 6 -8 -1 -15 -15 -33 -18 -25 -5 6 10 -24 9 -41 -1 -6 -4
-14 -1 -16 5 -3 7 -6 4 -6 -6 -1 -19 -2 -19 -14 -2 -12 17 -14 17 -20 3 -4
-10 -13 -14 -22 -11 -8 3 -12 11 -8 18 3 6 1 6 -8 -1 -15 -15 -33 -17 -25 -4
3 4 -9 6 -27 4 -44 -7 -50 -6 -69 2 -11 4 -18 3 -18 -5 0 -6 5 -8 12 -4 7 4 8
3 4 -4 -9 -15 -38 -3 -29 12 3 6 1 6 -8 -1 -15 -15 -33 -18 -25 -5 6 10 -24 9
-41 -1 -6 -4 -14 -1 -16 5 -3 7 -6 4 -6 -6 -1 -19 -2 -19 -14 -2 -12 17 -14
17 -20 3 -4 -10 -13 -14 -22 -11 -8 3 -12 11 -8 18 3 6 1 6 -8 -1 -15 -15 -33
-17 -25 -4 6 8 -53 5 -62 -4 -3 -2 -14 0 -25 6 -14 8 -18 8 -13 0 8 -12 -6
-15 -17 -4 -4 3 -20 7 -36 7 -20 1 -27 -3 -23 -13 4 -10 0 -10 -19 2 -16 11
-29 13 -39 7 -8 -5 -21 -5 -30 0 -9 5 -22 5 -30 0 -8 -5 -22 -4 -33 2 -14 7
-17 7 -13 -1 4 -6 3 -11 -3 -11 -5 0 -12 4 -15 9 -4 5 -14 8 -24 6 -9 -2 -23
-4 -30 -4 -7 -1 -10 -5 -7 -11 3 -6 -1 -7 -9 -4 -9 3 -13 10 -10 15 10 16 -8
9 -23 -8 -14 -17 -14 -17 -9 1 5 15 4 17 -8 7 -11 -9 -15 -9 -19 1 -4 10 -6
10 -6 -1 -1 -11 -4 -11 -18 0 -15 12 -16 12 -10 -3 4 -12 2 -15 -8 -11 -8 3
-12 10 -9 17 3 6 -2 2 -10 -8 -16 -20 -16 -20 -17 0 0 10 -3 13 -6 6 -2 -6
-10 -9 -16 -5 -6 3 -23 7 -37 7 -19 1 -26 -3 -22 -13 4 -10 0 -10 -19 2 -16
11 -29 13 -39 7 -9 -5 -19 -5 -26 1 -7 6 -16 4 -24 -6 -12 -14 -15 -14 -31 1
-13 12 -19 13 -19 4 0 -10 -4 -9 -17 1 -9 8 -14 9 -10 3 4 -7 0 -14 -8 -18 -8
-3 -17 -1 -20 4 -4 6 -13 10 -21 10 -8 0 -12 -4 -9 -10 3 -6 -1 -7 -9 -4 -9 3
-13 10 -10 15 10 16 -8 9 -23 -8 -14 -17 -14 -17 -9 1 5 15 4 17 -8 7 -11 -9
-15 -9 -19 1 -4 10 -6 10 -6 -1 -1 -11 -4 -11 -18 0 -15 12 -16 12 -10 -3 4
-12 2 -15 -8 -11 -8 3 -12 10 -9 17 3 6 -2 2 -10 -8 -16 -20 -16 -20 -17 0 0
10 -3 13 -6 6 -2 -6 -10 -9 -16 -5 -6 3 -23 7 -37 7 -19 1 -26 -3 -22 -13 4
-10 0 -10 -19 2 -16 11 -29 13 -39 7 -8 -5 -21 -5 -30 0 -9 5 -22 5 -30 0 -8
-5 -22 -4 -33 2 -14 7 -17 7 -13 -1 8 -12 -6 -15 -18 -4 -9 10 -76 10 -76 1 0
-5 5 -8 12 -8 6 0 9 -2 6 -5 -10 -10 -38 7 -31 19 3 6 1 6 -8 -1 -15 -15 -33
-18 -25 -5 6 10 -24 9 -41 -1 -6 -4 -14 -1 -16 5 -3 7 -6 4 -6 -6 -1 -19 -2
-19 -14 -2 -12 17 -14 17 -20 3 -4 -10 -13 -14 -22 -11 -8 3 -12 11 -8 18 3 6
1 6 -8 -1 -15 -15 -33 -17 -25 -4 3 4 -9 6 -27 4 -44 -7 -50 -6 -69 2 -11 4
-18 3 -18 -5 0 -6 5 -8 12 -4 7 4 8 3 4 -4 -9 -15 -38 -3 -29 12 3 6 1 6 -8
-1 -15 -15 -33 -18 -25 -5 6 10 -24 9 -41 -1 -6 -4 -14 -1 -16 5 -3 7 -6 4 -6
-6 -1 -19 -2 -19 -14 -2 -12 17 -14 17 -20 3 -4 -10 -13 -14 -22 -11 -8 3 -12
11 -8 18 3 6 1 6 -8 -1 -15 -15 -33 -17 -25 -4 6 8 -53 5 -62 -4 -3 -2 -14 0
-25 6 -14 8 -18 8 -13 0 4 -6 0 -11 -9 -11 -9 0 -13 5 -10 10 10 17 -7 11 -22
-7 -14 -17 -14 -17 -9 1 5 15 4 17 -8 7 -11 -9 -15 -9 -19 1 -4 10 -6 10 -6
-1 -1 -11 -4 -11 -18 0 -15 12 -16 12 -10 -3 4 -12 2 -15 -8 -11 -8 3 -12 10
-9 17 3 6 -2 2 -10 -8 -16 -20 -16 -20 -17 0 0 10 -3 13 -6 6 -2 -6 -10 -9
-16 -5 -6 3 -23 7 -37 7 -19 1 -26 -3 -22 -13 4 -10 0 -10 -19 2 -16 11 -29
13 -39 7 -9 -5 -19 -5 -26 1 -7 6 -16 4 -24 -6 -12 -14 -15 -14 -31 1 -13 12
-19 13 -19 4 0 -10 -4 -9 -17 1 -9 8 -14 9 -10 3 4 -7 0 -14 -8 -18 -8 -3 -17
-1 -20 4 -4 6 -13 10 -21 10 -8 0 -12 -4 -9 -10 3 -6 -1 -7 -9 -4 -9 3 -13 10
-10 15 10 16 -8 9 -23 -8 -14 -17 -14 -17 -9 1 5 15 4 17 -8 7 -11 -9 -15 -9
-19 1 -4 10 -6 10 -6 -1 -1 -11 -4 -11 -18 0 -15 12 -16 12 -10 -3 4 -12 2
-15 -8 -11 -8 3 -12 10 -9 17 3 6 -2 2 -10 -8 -16 -20 -16 -20 -16 0 0 14 -2
16 -9 5 -6 -10 -10 -10 -16 -1 -5 8 -11 6 -22 -7 -13 -17 -14 -17 -9 0 6 20 6
20 -18 2z m1404 -1 c0 -8 -19 -13 -24 -6 -3 5 1 9 9 9 8 0 15 -2 15 -3z m960
0 c0 -8 -19 -13 -24 -6 -3 5 1 9 9 9 8 0 15 -2 15 -3z m4160 0 c0 -8 -19 -13
-24 -6 -3 5 1 9 9 9 8 0 15 -2 15 -3z m-5784 -167 c4 -4 16 -7 26 -7 21 0 59
-30 52 -42 -3 -4 1 -5 9 -2 15 6 17 0 22 -73 2 -35 -1 -53 -8 -53 -7 0 -5 -5
3 -10 12 -7 12 -10 1 -10 -8 0 -11 -6 -7 -16 4 -11 -1 -18 -14 -21 -11 -3 -17
-9 -15 -14 8 -12 -63 -82 -75 -74 -6 4 -10 3 -9 -2 4 -21 -3 -31 -23 -38 -13
-4 -26 -7 -30 -6 -5 1 -8 -4 -8 -10 0 -6 -7 -8 -16 -5 -12 5 -15 2 -10 -10 5
-14 4 -15 -9 -4 -8 7 -15 8 -15 3 0 -5 -27 -9 -60 -10 -40 -1 -58 2 -53 10 4
6 -2 8 -15 5 -12 -4 -25 -1 -29 4 -4 7 -1 8 7 3 9 -6 11 -4 6 4 -5 7 -15 10
-23 7 -8 -3 -12 -2 -8 3 7 13 -5 42 -15 36 -5 -3 -9 3 -9 12 0 10 -2 30 -4 46
-2 15 -1 27 4 27 5 0 6 7 3 15 -4 8 -1 15 6 15 6 0 8 5 5 10 -3 6 -2 10 3 10
6 0 9 8 8 18 0 9 5 16 12 14 7 -1 12 5 10 15 -2 10 2 17 10 16 6 -2 12 4 12
12 0 8 5 15 10 15 6 0 10 7 10 15 0 8 6 12 14 9 8 -3 16 3 19 16 3 12 10 19
16 16 5 -4 13 -1 16 4 7 12 55 34 68 32 4 -1 7 4 7 11 0 8 4 7 10 -3 6 -9 10
-11 10 -3 0 7 7 10 17 6 10 -4 14 -2 10 4 -7 11 38 12 49 0z m1448 2 c-2 -4 4
-8 13 -9 40 -1 62 -5 58 -9 -3 -2 8 -15 23 -27 15 -13 23 -24 17 -24 -5 0 -3
-5 5 -11 12 -8 12 -12 2 -16 -10 -4 -9 -8 5 -19 11 -8 13 -13 5 -14 -10 0 -10
-5 -2 -20 8 -15 8 -18 -3 -14 -10 3 -13 -3 -12 -26 1 -19 -3 -30 -12 -30 -7 0
-13 -7 -13 -15 0 -8 -5 -15 -11 -15 -5 0 -8 -4 -5 -8 3 -5 -6 -20 -19 -34 -13
-14 -21 -29 -17 -32 3 -4 -2 -4 -12 0 -14 5 -17 4 -12 -4 5 -8 0 -12 -13 -12
-14 0 -19 -5 -15 -15 5 -11 2 -13 -9 -9 -9 3 -23 -3 -33 -15 -10 -11 -21 -18
-26 -15 -5 3 -16 0 -25 -8 -14 -11 -16 -11 -8 2 7 12 6 13 -6 3 -15 -12 -121
-14 -114 -2 3 4 -7 10 -20 13 -16 4 -23 11 -19 18 5 7 2 9 -8 6 -15 -6 -16 -2
-19 47 -1 14 -6 22 -12 18 -7 -4 -8 0 -3 13 4 10 9 24 10 29 1 6 6 16 10 24 6
10 5 12 -2 7 -8 -5 -10 -2 -6 8 3 9 11 13 17 9 5 -3 7 -1 4 4 -9 14 22 75 34
68 5 -4 9 -1 9 4 0 14 43 57 53 54 4 -2 7 4 7 12 0 8 9 15 21 15 12 0 17 4 14
11 -4 6 0 9 11 7 11 -2 18 2 17 8 -1 7 10 10 27 9 17 -1 30 1 30 6 0 5 7 5 17
2 9 -4 14 -2 10 3 -3 6 5 10 18 10 13 0 22 -3 19 -7z m1442 -6 c-5 -15 -4 -15
9 1 11 15 15 16 16 5 0 -11 2 -11 6 0 5 11 7 11 14 0 7 -11 9 -11 9 -1 0 10 5
9 17 -4 11 -11 18 -13 21 -5 3 8 8 7 17 -2 8 -6 21 -18 30 -25 8 -7 13 -17 10
-22 -3 -4 2 -11 11 -14 9 -3 14 -12 11 -20 -3 -7 0 -19 6 -25 7 -7 7 -11 1
-11 -6 0 -11 -16 -11 -36 0 -20 -4 -39 -9 -42 -16 -12 -35 -52 -29 -62 4 -6
-2 -7 -12 -3 -10 3 -15 3 -11 -1 8 -10 -14 -36 -24 -29 -5 2 -8 -3 -8 -11 0
-9 -6 -15 -12 -13 -7 1 -12 -4 -10 -11 1 -8 -2 -11 -7 -8 -5 4 -14 -2 -20 -11
-5 -10 -13 -15 -16 -11 -4 4 -14 0 -22 -8 -9 -8 -22 -13 -30 -10 -9 4 -11 2
-7 -6 5 -7 0 -9 -14 -6 -12 4 -20 2 -17 -2 3 -5 -22 -8 -55 -8 -40 1 -60 6
-60 14 0 7 -9 10 -22 8 -13 -2 -18 -2 -11 1 7 4 1 17 -19 36 -18 17 -25 29
-17 29 11 0 11 2 -1 10 -8 5 -11 12 -7 16 4 4 2 13 -5 21 -9 11 -8 13 1 11 8
-2 14 10 16 31 2 18 7 36 12 40 11 7 27 42 25 53 -1 5 4 7 11 5 6 -1 11 4 10
11 -2 6 1 12 6 12 4 0 22 12 39 28 50 45 60 51 66 45 3 -4 6 -1 6 5 0 6 7 9
15 6 8 -4 15 -1 15 5 0 6 9 11 19 11 11 0 23 5 26 10 10 16 18 11 11 -7z
m1498 -6 c-3 -7 2 -3 10 7 12 15 16 16 16 5 0 -11 2 -11 9 -1 7 11 9 11 14 -1
3 -8 17 -13 36 -12 17 1 29 0 26 -3 -2 -3 4 -13 15 -22 25 -22 37 -57 34 -100
-3 -52 -3 -52 -16 -44 -8 5 -7 0 2 -11 9 -11 10 -16 3 -11 -7 4 -13 2 -13 -3
0 -20 -3 -26 -19 -39 -13 -11 -13 -12 -1 -7 10 4 9 2 -2 -8 -10 -8 -14 -18
-10 -22 4 -5 -1 -5 -10 -2 -12 4 -15 2 -12 -7 3 -8 -7 -19 -25 -27 -20 -9 -26
-16 -18 -21 9 -6 9 -8 -1 -8 -8 0 -26 -9 -42 -20 -15 -11 -30 -17 -34 -13 -3
3 -6 1 -6 -7 0 -10 -4 -10 -17 1 -10 8 -14 9 -10 2 4 -6 3 -14 -3 -18 -5 -3
-10 0 -10 7 0 10 -2 10 -8 1 -11 -18 -111 -11 -123 8 -5 8 -9 10 -9 6 0 -4 -6
-2 -14 5 -8 7 -12 16 -10 19 1 3 -6 12 -17 19 -24 18 -25 34 -1 26 15 -5 15
-4 2 6 -17 15 -25 58 -10 58 5 0 7 9 5 20 -2 11 1 20 6 20 6 0 8 4 4 9 -3 5
-1 12 5 16 6 4 7 12 3 18 -4 7 2 5 12 -3 17 -14 18 -14 5 10 -7 14 -9 22 -5
18 5 -5 15 1 22 12 8 11 19 17 25 14 7 -4 8 -2 4 4 -3 6 3 16 14 22 11 6 18
14 16 19 -3 4 11 13 30 20 18 7 34 17 34 22 0 5 3 8 8 8 17 -3 72 14 72 23 0
5 5 6 10 3 6 -4 8 -12 4 -18z m1502 8 c-2 -6 7 -10 22 -9 15 0 35 -9 48 -22
11 -13 23 -21 26 -18 3 2 5 -3 5 -13 0 -37 3 -44 16 -37 6 4 4 -2 -6 -13 -12
-14 -15 -23 -8 -28 8 -4 8 -12 1 -26 -6 -10 -8 -19 -4 -19 4 0 0 -8 -9 -18
-10 -10 -14 -22 -10 -25 3 -4 1 -7 -6 -7 -7 0 -9 -4 -6 -10 3 -5 1 -10 -5 -10
-6 0 -8 -5 -5 -10 4 -6 2 -9 -3 -8 -11 4 -62 -49 -55 -56 3 -3 -6 -8 -21 -12
-14 -3 -26 -10 -26 -16 0 -5 -4 -6 -10 -3 -5 3 -10 3 -10 -2 0 -16 -48 -31
-60 -19 -8 8 -11 7 -8 -4 5 -22 -91 -24 -116 -2 -11 9 -16 12 -13 5 4 -6 3
-14 -3 -18 -5 -3 -10 3 -10 14 0 12 -3 20 -7 20 -20 -3 -34 2 -28 10 3 5 1 12
-5 16 -6 4 -8 11 -5 16 4 5 0 9 -7 9 -9 0 -9 3 2 10 10 6 11 10 3 10 -7 0 -13
7 -13 16 0 9 5 12 13 8 9 -5 9 -4 0 6 -9 10 -10 17 -2 27 7 7 8 13 4 13 -4 0
0 12 10 26 11 18 13 24 4 19 -8 -4 -4 2 9 14 12 12 19 27 16 33 -4 7 -2 8 4 4
7 -4 12 -1 12 8 0 8 5 18 12 22 7 5 9 2 4 -7 -4 -8 0 -5 8 5 9 11 16 24 16 29
0 4 5 5 10 2 6 -3 10 -1 10 5 0 6 11 15 25 20 14 5 25 14 25 19 0 6 7 8 15 5
8 -3 24 1 36 9 12 9 27 13 34 11 7 -3 15 -1 18 3 8 13 58 11 53 -2z"/>
</g>
</svg>
